<svg width="247" height="2" viewBox="0 0 247 2" fill="none" xmlns="http://www.w3.org/2000/svg">
<path id="Avg Line" d="M246.346 1.21805C246.592 1.21805 246.792 1.01841 246.792 0.77214C246.792 0.525869 246.592 0.326227 246.346 0.326227L246.346 1.21805ZM0.0684473 1.2181C0.314718 1.2181 0.51436 1.01846 0.51436 0.772186C0.51436 0.525915 0.314718 0.326273 0.0684471 0.326273L0.0684473 1.2181ZM3.63123 0.326273C3.38496 0.326273 3.18532 0.525915 3.18532 0.772186C3.18532 1.01846 3.38496 1.2181 3.63123 1.2181L3.63123 0.326273ZM3.69061 1.2181C3.93689 1.2181 4.13653 1.01846 4.13653 0.772186C4.13653 0.525915 3.93688 0.326273 3.69061 0.326273L3.69061 1.2181ZM7.2534 0.326272C7.00713 0.326272 6.80749 0.525914 6.80749 0.772185C6.80749 1.01846 7.00713 1.2181 7.2534 1.2181L7.2534 0.326272ZM7.31278 1.2181C7.55905 1.2181 7.75869 1.01846 7.75869 0.772185C7.75869 0.525914 7.55905 0.326272 7.31278 0.326272L7.31278 1.2181ZM10.8756 0.326271C10.6293 0.326272 10.4297 0.525914 10.4297 0.772184C10.4297 1.01846 10.6293 1.2181 10.8756 1.2181L10.8756 0.326271ZM10.9349 1.2181C11.1812 1.2181 11.3809 1.01845 11.3809 0.772184C11.3809 0.525913 11.1812 0.326271 10.9349 0.326271L10.9349 1.2181ZM14.4977 0.326271C14.2515 0.326271 14.0518 0.525913 14.0518 0.772184C14.0518 1.01845 14.2515 1.2181 14.4977 1.2181L14.4977 0.326271ZM14.5571 1.2181C14.8034 1.2181 15.003 1.01845 15.003 0.772183C15.003 0.525913 14.8034 0.326271 14.5571 0.326271L14.5571 1.2181ZM18.1199 0.32627C17.8736 0.32627 17.674 0.525912 17.674 0.772183C17.674 1.01845 17.8736 1.2181 18.1199 1.2181L18.1199 0.32627ZM18.1793 1.2181C18.4256 1.2181 18.6252 1.01845 18.6252 0.772183C18.6252 0.525912 18.4256 0.32627 18.1793 0.32627L18.1793 1.2181ZM21.7421 0.326269C21.4958 0.326269 21.2962 0.525911 21.2962 0.772182C21.2962 1.01845 21.4958 1.2181 21.7421 1.21809L21.7421 0.326269ZM21.8014 1.21809C22.0477 1.21809 22.2474 1.01845 22.2474 0.772182C22.2474 0.525911 22.0477 0.326269 21.8014 0.326269L21.8014 1.21809ZM25.3642 0.326269C25.118 0.326269 24.9183 0.525911 24.9183 0.772182C24.9183 1.01845 25.118 1.21809 25.3642 1.21809L25.3642 0.326269ZM25.4236 1.21809C25.6699 1.21809 25.8695 1.01845 25.8695 0.772181C25.8695 0.525911 25.6699 0.326269 25.4236 0.326269L25.4236 1.21809ZM28.9864 0.326268C28.7401 0.326268 28.5405 0.52591 28.5405 0.772181C28.5405 1.01845 28.7401 1.21809 28.9864 1.21809L28.9864 0.326268ZM29.0458 1.21809C29.2921 1.21809 29.4917 1.01845 29.4917 0.772181C29.4917 0.52591 29.2921 0.326268 29.0458 0.326268L29.0458 1.21809ZM32.6086 0.326267C32.3623 0.326267 32.1627 0.525909 32.1627 0.77218C32.1627 1.01845 32.3623 1.21809 32.6086 1.21809L32.6086 0.326267ZM32.668 1.21809C32.9142 1.21809 33.1139 1.01845 33.1139 0.77218C33.1139 0.525909 32.9142 0.326267 32.668 0.326267L32.668 1.21809ZM36.2307 0.326267C35.9845 0.326267 35.7848 0.525909 35.7848 0.77218C35.7848 1.01845 35.9845 1.21809 36.2307 1.21809L36.2307 0.326267ZM36.2901 1.21809C36.5364 1.21809 36.736 1.01845 36.736 0.772179C36.736 0.525909 36.5364 0.326267 36.2901 0.326267L36.2901 1.21809ZM39.8529 0.326266C39.6066 0.326266 39.407 0.525908 39.407 0.772179C39.407 1.01845 39.6066 1.21809 39.8529 1.21809L39.8529 0.326266ZM39.9123 1.21809C40.1586 1.21809 40.3582 1.01845 40.3582 0.772179C40.3582 0.525908 40.1586 0.326266 39.9123 0.326266L39.9123 1.21809ZM43.4751 0.326265C43.2288 0.326265 43.0292 0.525907 43.0292 0.772178C43.0292 1.01845 43.2288 1.21809 43.4751 1.21809L43.4751 0.326265ZM43.5344 1.21809C43.7807 1.21809 43.9804 1.01845 43.9804 0.772178C43.9804 0.525907 43.7807 0.326265 43.5344 0.326265L43.5344 1.21809ZM47.0972 0.326265C46.851 0.326265 46.6513 0.525907 46.6513 0.772178C46.6513 1.01845 46.851 1.21809 47.0972 1.21809L47.0972 0.326265ZM47.1566 1.21809C47.4029 1.21809 47.6025 1.01845 47.6025 0.772177C47.6025 0.525907 47.4029 0.326265 47.1566 0.326265L47.1566 1.21809ZM50.7194 0.326264C50.4731 0.326264 50.2735 0.525906 50.2735 0.772177C50.2735 1.01845 50.4731 1.21809 50.7194 1.21809L50.7194 0.326264ZM50.7788 1.21809C51.025 1.21809 51.2247 1.01845 51.2247 0.772177C51.2247 0.525906 51.025 0.326264 50.7788 0.326264L50.7788 1.21809ZM54.3416 0.326263C54.0953 0.326263 53.8956 0.525905 53.8956 0.772176C53.8956 1.01845 54.0953 1.21809 54.3416 1.21809L54.3416 0.326263ZM54.4009 1.21809C54.6472 1.21809 54.8469 1.01845 54.8469 0.772176C54.8469 0.525905 54.6472 0.326263 54.4009 0.326263L54.4009 1.21809ZM57.9637 0.326263C57.7175 0.326263 57.5178 0.525905 57.5178 0.772176C57.5178 1.01845 57.7175 1.21809 57.9637 1.21809L57.9637 0.326263ZM58.0231 1.21809C58.2694 1.21809 58.469 1.01845 58.469 0.772175C58.469 0.525905 58.2694 0.326263 58.0231 0.326263L58.0231 1.21809ZM61.5859 0.326262C61.3396 0.326262 61.14 0.525904 61.14 0.772175C61.14 1.01845 61.3396 1.21809 61.5859 1.21809L61.5859 0.326262ZM61.6453 1.21809C61.8915 1.21809 62.0912 1.01845 62.0912 0.772175C62.0912 0.525904 61.8915 0.326262 61.6453 0.326262L61.6453 1.21809ZM65.2081 0.326261C64.9618 0.326261 64.7621 0.525903 64.7621 0.772174C64.7621 1.01844 64.9618 1.21809 65.2081 1.21809L65.2081 0.326261ZM65.2674 1.21809C65.5137 1.21809 65.7133 1.01844 65.7133 0.772174C65.7133 0.525903 65.5137 0.326261 65.2674 0.326261L65.2674 1.21809ZM68.8302 0.326261C68.584 0.326261 68.3843 0.525903 68.3843 0.772173C68.3843 1.01844 68.584 1.21809 68.8302 1.21809L68.8302 0.326261ZM68.8896 1.21809C69.1359 1.21809 69.3355 1.01844 69.3355 0.772173C69.3355 0.525902 69.1359 0.326261 68.8896 0.326261L68.8896 1.21809ZM72.4524 0.32626C72.2061 0.32626 72.0065 0.525902 72.0065 0.772173C72.0065 1.01844 72.2061 1.21809 72.4524 1.21809L72.4524 0.32626ZM72.5118 1.21809C72.758 1.21809 72.9577 1.01844 72.9577 0.772173C72.9577 0.525902 72.758 0.32626 72.5118 0.32626L72.5118 1.21809ZM76.0746 0.326259C75.8283 0.326259 75.6287 0.525901 75.6287 0.772172C75.6287 1.01844 75.8283 1.21808 76.0746 1.21808L76.0746 0.326259ZM76.1339 1.21808C76.3802 1.21808 76.5799 1.01844 76.5799 0.772172C76.5799 0.525901 76.3802 0.326259 76.1339 0.326259L76.1339 1.21808ZM79.6967 0.326259C79.4505 0.326259 79.2508 0.525901 79.2508 0.772171C79.2508 1.01844 79.4505 1.21808 79.6967 1.21808L79.6967 0.326259ZM79.7561 1.21808C80.0024 1.21808 80.202 1.01844 80.202 0.772171C80.202 0.5259 80.0024 0.326259 79.7561 0.326259L79.7561 1.21808ZM83.3189 0.326258C83.0726 0.326258 82.873 0.5259 82.873 0.772171C82.873 1.01844 83.0726 1.21808 83.3189 1.21808L83.3189 0.326258ZM83.3783 1.21808C83.6246 1.21808 83.8242 1.01844 83.8242 0.772171C83.8242 0.5259 83.6246 0.326258 83.3783 0.326258L83.3783 1.21808ZM86.9411 0.326257C86.6948 0.326257 86.4952 0.525899 86.4952 0.77217C86.4952 1.01844 86.6948 1.21808 86.9411 1.21808L86.9411 0.326257ZM87.0005 1.21808C87.2467 1.21808 87.4464 1.01844 87.4464 0.77217C87.4464 0.525899 87.2467 0.326257 87.0005 0.326257L87.0005 1.21808ZM90.5632 0.326257C90.317 0.326257 90.1173 0.525899 90.1173 0.772169C90.1173 1.01844 90.317 1.21808 90.5632 1.21808L90.5632 0.326257ZM90.6226 1.21808C90.8689 1.21808 91.0685 1.01844 91.0685 0.772169C91.0685 0.525898 90.8689 0.326257 90.6226 0.326257L90.6226 1.21808ZM94.1854 0.326256C93.9391 0.326256 93.7395 0.525898 93.7395 0.772169C93.7395 1.01844 93.9391 1.21808 94.1854 1.21808L94.1854 0.326256ZM94.2448 1.21808C94.4911 1.21808 94.6907 1.01844 94.6907 0.772169C94.6907 0.525898 94.4911 0.326256 94.2448 0.326256L94.2448 1.21808ZM97.8076 0.326255C97.5613 0.326255 97.3617 0.525897 97.3617 0.772168C97.3617 1.01844 97.5613 1.21808 97.8076 1.21808L97.8076 0.326255ZM97.867 1.21808C98.1132 1.21808 98.3129 1.01844 98.3129 0.772168C98.3129 0.525897 98.1132 0.326255 97.867 0.326255L97.867 1.21808ZM101.43 0.326255C101.183 0.326255 100.984 0.525897 100.984 0.772167C100.984 1.01844 101.183 1.21808 101.43 1.21808L101.43 0.326255ZM101.489 1.21808C101.735 1.21808 101.935 1.01844 101.935 0.772167C101.935 0.525896 101.735 0.326254 101.489 0.326255L101.489 1.21808ZM105.052 0.326254C104.806 0.326254 104.606 0.525896 104.606 0.772167C104.606 1.01844 104.806 1.21808 105.052 1.21808L105.052 0.326254ZM105.111 1.21808C105.358 1.21808 105.557 1.01844 105.557 0.772167C105.557 0.525896 105.358 0.326254 105.111 0.326254L105.111 1.21808ZM108.674 0.326253C108.428 0.326253 108.228 0.525895 108.228 0.772166C108.228 1.01844 108.428 1.21808 108.674 1.21808L108.674 0.326253ZM108.733 1.21808C108.98 1.21808 109.179 1.01844 109.179 0.772166C109.179 0.525895 108.98 0.326253 108.733 0.326253L108.733 1.21808ZM112.296 0.326252C112.05 0.326253 111.85 0.525895 111.85 0.772165C111.85 1.01844 112.05 1.21808 112.296 1.21808L112.296 0.326252ZM112.356 1.21808C112.602 1.21808 112.802 1.01844 112.802 0.772165C112.802 0.525894 112.602 0.326252 112.356 0.326252L112.356 1.21808ZM115.918 0.326252C115.672 0.326252 115.473 0.525894 115.473 0.772165C115.473 1.01844 115.672 1.21808 115.918 1.21808L115.918 0.326252ZM115.978 1.21808C116.224 1.21808 116.424 1.01844 116.424 0.772165C116.424 0.525894 116.224 0.326252 115.978 0.326252L115.978 1.21808ZM119.541 0.326251C119.294 0.326251 119.095 0.525893 119.095 0.772164C119.095 1.01843 119.294 1.21808 119.541 1.21808L119.541 0.326251ZM119.6 1.21808C119.846 1.21808 120.046 1.01843 120.046 0.772164C120.046 0.525893 119.846 0.326251 119.6 0.326251L119.6 1.21808ZM123.163 0.32625C122.917 0.326251 122.717 0.525892 122.717 0.772163C122.717 1.01843 122.917 1.21808 123.163 1.21808L123.163 0.32625ZM123.222 1.21808C123.468 1.21808 123.668 1.01843 123.668 0.772163C123.668 0.525892 123.468 0.32625 123.222 0.32625L123.222 1.21808ZM126.785 0.32625C126.539 0.32625 126.339 0.525892 126.339 0.772163C126.339 1.01843 126.539 1.21808 126.785 1.21808L126.785 0.32625ZM126.844 1.21808C127.091 1.21808 127.29 1.01843 127.29 0.772162C127.29 0.525892 127.091 0.32625 126.844 0.32625L126.844 1.21808ZM130.407 0.326249C130.161 0.326249 129.961 0.525891 129.961 0.772162C129.961 1.01843 130.161 1.21807 130.407 1.21807L130.407 0.326249ZM130.466 1.21807C130.713 1.21807 130.912 1.01843 130.912 0.772162C130.912 0.525891 130.713 0.326249 130.466 0.326249L130.466 1.21807ZM134.029 0.326248C133.783 0.326248 133.583 0.52589 133.583 0.772161C133.583 1.01843 133.783 1.21807 134.029 1.21807L134.029 0.326248ZM134.089 1.21807C134.335 1.21807 134.535 1.01843 134.535 0.772161C134.535 0.52589 134.335 0.326248 134.089 0.326248L134.089 1.21807ZM137.651 0.326248C137.405 0.326248 137.206 0.52589 137.206 0.772161C137.206 1.01843 137.405 1.21807 137.651 1.21807L137.651 0.326248ZM137.711 1.21807C137.957 1.21807 138.157 1.01843 138.157 0.77216C138.157 0.52589 137.957 0.326248 137.711 0.326248L137.711 1.21807ZM141.274 0.326247C141.027 0.326247 140.828 0.525889 140.828 0.77216C140.828 1.01843 141.027 1.21807 141.274 1.21807L141.274 0.326247ZM141.333 1.21807C141.579 1.21807 141.779 1.01843 141.779 0.77216C141.779 0.525889 141.579 0.326247 141.333 0.326247L141.333 1.21807ZM144.896 0.326246C144.65 0.326246 144.45 0.525888 144.45 0.772159C144.45 1.01843 144.65 1.21807 144.896 1.21807L144.896 0.326246ZM144.955 1.21807C145.201 1.21807 145.401 1.01843 145.401 0.772159C145.401 0.525888 145.201 0.326246 144.955 0.326246L144.955 1.21807ZM148.518 0.326246C148.272 0.326246 148.072 0.525888 148.072 0.772159C148.072 1.01843 148.272 1.21807 148.518 1.21807L148.518 0.326246ZM148.577 1.21807C148.824 1.21807 149.023 1.01843 149.023 0.772158C149.023 0.525888 148.824 0.326246 148.577 0.326246L148.577 1.21807ZM152.14 0.326245C151.894 0.326245 151.694 0.525887 151.694 0.772158C151.694 1.01843 151.894 1.21807 152.14 1.21807L152.14 0.326245ZM152.2 1.21807C152.446 1.21807 152.645 1.01843 152.645 0.772158C152.645 0.525887 152.446 0.326245 152.2 0.326245L152.2 1.21807ZM155.762 0.326244C155.516 0.326244 155.316 0.525886 155.316 0.772157C155.316 1.01843 155.516 1.21807 155.762 1.21807L155.762 0.326244ZM155.822 1.21807C156.068 1.21807 156.268 1.01843 156.268 0.772157C156.268 0.525886 156.068 0.326244 155.822 0.326244L155.822 1.21807ZM159.385 0.326244C159.138 0.326244 158.939 0.525886 158.939 0.772157C158.939 1.01843 159.138 1.21807 159.385 1.21807L159.385 0.326244ZM159.444 1.21807C159.69 1.21807 159.89 1.01843 159.89 0.772156C159.89 0.525886 159.69 0.326244 159.444 0.326244L159.444 1.21807ZM163.007 0.326243C162.76 0.326243 162.561 0.525885 162.561 0.772156C162.561 1.01843 162.76 1.21807 163.007 1.21807L163.007 0.326243ZM163.066 1.21807C163.312 1.21807 163.512 1.01843 163.512 0.772156C163.512 0.525885 163.312 0.326243 163.066 0.326243L163.066 1.21807ZM166.629 0.326242C166.383 0.326242 166.183 0.525884 166.183 0.772155C166.183 1.01843 166.383 1.21807 166.629 1.21807L166.629 0.326242ZM166.688 1.21807C166.935 1.21807 167.134 1.01843 167.134 0.772155C167.134 0.525884 166.935 0.326242 166.688 0.326242L166.688 1.21807ZM170.251 0.326242C170.005 0.326242 169.805 0.525884 169.805 0.772155C169.805 1.01843 170.005 1.21807 170.251 1.21807L170.251 0.326242ZM170.31 1.21807C170.557 1.21807 170.756 1.01843 170.756 0.772154C170.756 0.525884 170.557 0.326242 170.31 0.326242L170.31 1.21807ZM173.873 0.326241C173.627 0.326241 173.427 0.525883 173.427 0.772154C173.427 1.01842 173.627 1.21807 173.873 1.21807L173.873 0.326241ZM173.933 1.21807C174.179 1.21807 174.379 1.01842 174.379 0.772154C174.379 0.525883 174.179 0.326241 173.933 0.326241L173.933 1.21807ZM177.495 0.32624C177.249 0.32624 177.049 0.525882 177.049 0.772153C177.049 1.01842 177.249 1.21807 177.495 1.21807L177.495 0.32624ZM177.555 1.21807C177.801 1.21807 178.001 1.01842 178.001 0.772153C178.001 0.525882 177.801 0.32624 177.555 0.32624L177.555 1.21807ZM181.118 0.32624C180.871 0.32624 180.672 0.525882 180.672 0.772152C180.672 1.01842 180.871 1.21807 181.118 1.21807L181.118 0.32624ZM181.177 1.21807C181.423 1.21807 181.623 1.01842 181.623 0.772152C181.623 0.525881 181.423 0.32624 181.177 0.32624L181.177 1.21807ZM184.74 0.326239C184.493 0.326239 184.294 0.525881 184.294 0.772152C184.294 1.01842 184.493 1.21806 184.74 1.21806L184.74 0.326239ZM184.799 1.21806C185.045 1.21806 185.245 1.01842 185.245 0.772152C185.245 0.525881 185.045 0.326239 184.799 0.326239L184.799 1.21806ZM188.362 0.326238C188.116 0.326238 187.916 0.52588 187.916 0.772151C187.916 1.01842 188.116 1.21806 188.362 1.21806L188.362 0.326238ZM188.421 1.21806C188.668 1.21806 188.867 1.01842 188.867 0.772151C188.867 0.52588 188.668 0.326238 188.421 0.326238L188.421 1.21806ZM191.984 0.326238C191.738 0.326238 191.538 0.52588 191.538 0.77215C191.538 1.01842 191.738 1.21806 191.984 1.21806L191.984 0.326238ZM192.044 1.21806C192.29 1.21806 192.489 1.01842 192.489 0.77215C192.489 0.525879 192.29 0.326238 192.044 0.326238L192.044 1.21806ZM195.606 0.326237C195.36 0.326237 195.16 0.525879 195.16 0.77215C195.16 1.01842 195.36 1.21806 195.606 1.21806L195.606 0.326237ZM195.666 1.21806C195.912 1.21806 196.112 1.01842 196.112 0.77215C196.112 0.525879 195.912 0.326237 195.666 0.326237L195.666 1.21806ZM199.228 0.326236C198.982 0.326236 198.783 0.525878 198.783 0.772149C198.783 1.01842 198.982 1.21806 199.228 1.21806L199.228 0.326236ZM199.288 1.21806C199.534 1.21806 199.734 1.01842 199.734 0.772149C199.734 0.525878 199.534 0.326236 199.288 0.326236L199.288 1.21806ZM202.851 0.326236C202.604 0.326236 202.405 0.525878 202.405 0.772148C202.405 1.01842 202.604 1.21806 202.851 1.21806L202.851 0.326236ZM202.91 1.21806C203.156 1.21806 203.356 1.01842 203.356 0.772148C203.356 0.525877 203.156 0.326235 202.91 0.326236L202.91 1.21806ZM206.473 0.326235C206.227 0.326235 206.027 0.525877 206.027 0.772148C206.027 1.01842 206.227 1.21806 206.473 1.21806L206.473 0.326235ZM206.532 1.21806C206.778 1.21806 206.978 1.01842 206.978 0.772148C206.978 0.525877 206.778 0.326235 206.532 0.326235L206.532 1.21806ZM210.095 0.326234C209.849 0.326234 209.649 0.525876 209.649 0.772147C209.649 1.01842 209.849 1.21806 210.095 1.21806L210.095 0.326234ZM210.154 1.21806C210.401 1.21806 210.6 1.01842 210.6 0.772147C210.6 0.525876 210.401 0.326234 210.154 0.326234L210.154 1.21806ZM213.717 0.326234C213.471 0.326234 213.271 0.525876 213.271 0.772146C213.271 1.01842 213.471 1.21806 213.717 1.21806L213.717 0.326234ZM213.777 1.21806C214.023 1.21806 214.222 1.01842 214.222 0.772146C214.222 0.525875 214.023 0.326233 213.777 0.326234L213.777 1.21806ZM217.339 0.326233C217.093 0.326233 216.893 0.525875 216.893 0.772146C216.893 1.01842 217.093 1.21806 217.339 1.21806L217.339 0.326233ZM217.399 1.21806C217.645 1.21806 217.845 1.01842 217.845 0.772146C217.845 0.525875 217.645 0.326233 217.399 0.326233L217.399 1.21806ZM220.962 0.326232C220.715 0.326232 220.516 0.525874 220.516 0.772145C220.516 1.01842 220.715 1.21806 220.962 1.21806L220.962 0.326232ZM221.021 1.21806C221.267 1.21806 221.467 1.01842 221.467 0.772145C221.467 0.525874 221.267 0.326232 221.021 0.326232L221.021 1.21806ZM224.584 0.326231C224.337 0.326232 224.138 0.525874 224.138 0.772144C224.138 1.01842 224.337 1.21806 224.584 1.21806L224.584 0.326231ZM224.643 1.21806C224.889 1.21806 225.089 1.01841 225.089 0.772144C225.089 0.525873 224.889 0.326231 224.643 0.326231L224.643 1.21806ZM228.206 0.326231C227.96 0.326231 227.76 0.525873 227.76 0.772144C227.76 1.01841 227.96 1.21806 228.206 1.21806L228.206 0.326231ZM228.265 1.21806C228.512 1.21806 228.711 1.01841 228.711 0.772143C228.711 0.525873 228.512 0.326231 228.265 0.326231L228.265 1.21806ZM231.828 0.32623C231.582 0.32623 231.382 0.525872 231.382 0.772143C231.382 1.01841 231.582 1.21806 231.828 1.21806L231.828 0.32623ZM231.887 1.21806C232.134 1.21806 232.333 1.01841 232.333 0.772143C232.333 0.525872 232.134 0.32623 231.887 0.32623L231.887 1.21806ZM235.45 0.326229C235.204 0.326229 235.004 0.525871 235.004 0.772142C235.004 1.01841 235.204 1.21806 235.45 1.21806L235.45 0.326229ZM235.51 1.21805C235.756 1.21805 235.956 1.01841 235.956 0.772142C235.956 0.525871 235.756 0.326229 235.51 0.326229L235.51 1.21805ZM239.072 0.326229C238.826 0.326229 238.626 0.525871 238.626 0.772142C238.626 1.01841 238.826 1.21805 239.072 1.21805L239.072 0.326229ZM239.132 1.21805C239.378 1.21805 239.578 1.01841 239.578 0.772141C239.578 0.525871 239.378 0.326229 239.132 0.326229L239.132 1.21805ZM242.695 0.326228C242.448 0.326228 242.249 0.52587 242.249 0.772141C242.249 1.01841 242.448 1.21805 242.695 1.21805L242.695 0.326228ZM242.754 1.21805C243 1.21805 243.2 1.01841 243.2 0.772141C243.2 0.52587 243 0.326228 242.754 0.326228L242.754 1.21805ZM246.317 0.326227C246.07 0.326227 245.871 0.525869 245.871 0.77214C245.871 1.01841 246.07 1.21805 246.317 1.21805L246.317 0.326227ZM0.0387574 1.2181L0.0684473 1.2181L0.0684471 0.326273L0.0387572 0.326274L0.0387574 1.2181ZM3.63123 1.2181L3.69061 1.2181L3.69061 0.326273L3.63123 0.326273L3.63123 1.2181ZM7.2534 1.2181L7.31278 1.2181L7.31278 0.326272L7.2534 0.326272L7.2534 1.2181ZM10.8756 1.2181L10.9349 1.2181L10.9349 0.326271L10.8756 0.326271L10.8756 1.2181ZM14.4977 1.2181L14.5571 1.2181L14.5571 0.326271L14.4977 0.326271L14.4977 1.2181ZM18.1199 1.2181L18.1793 1.2181L18.1793 0.32627L18.1199 0.32627L18.1199 1.2181ZM21.7421 1.21809L21.8014 1.21809L21.8014 0.326269L21.7421 0.326269L21.7421 1.21809ZM25.3642 1.21809L25.4236 1.21809L25.4236 0.326269L25.3642 0.326269L25.3642 1.21809ZM28.9864 1.21809L29.0458 1.21809L29.0458 0.326268L28.9864 0.326268L28.9864 1.21809ZM32.6086 1.21809L32.668 1.21809L32.668 0.326267L32.6086 0.326267L32.6086 1.21809ZM36.2307 1.21809L36.2901 1.21809L36.2901 0.326267L36.2307 0.326267L36.2307 1.21809ZM39.8529 1.21809L39.9123 1.21809L39.9123 0.326266L39.8529 0.326266L39.8529 1.21809ZM43.4751 1.21809L43.5344 1.21809L43.5344 0.326265L43.4751 0.326265L43.4751 1.21809ZM47.0972 1.21809L47.1566 1.21809L47.1566 0.326265L47.0972 0.326265L47.0972 1.21809ZM50.7194 1.21809L50.7788 1.21809L50.7788 0.326264L50.7194 0.326264L50.7194 1.21809ZM54.3416 1.21809L54.4009 1.21809L54.4009 0.326263L54.3416 0.326263L54.3416 1.21809ZM57.9637 1.21809L58.0231 1.21809L58.0231 0.326263L57.9637 0.326263L57.9637 1.21809ZM61.5859 1.21809L61.6453 1.21809L61.6453 0.326262L61.5859 0.326262L61.5859 1.21809ZM65.2081 1.21809L65.2674 1.21809L65.2674 0.326261L65.2081 0.326261L65.2081 1.21809ZM68.8302 1.21809L68.8896 1.21809L68.8896 0.326261L68.8302 0.326261L68.8302 1.21809ZM72.4524 1.21809L72.5118 1.21809L72.5118 0.32626L72.4524 0.32626L72.4524 1.21809ZM76.0746 1.21808L76.1339 1.21808L76.1339 0.326259L76.0746 0.326259L76.0746 1.21808ZM79.6967 1.21808L79.7561 1.21808L79.7561 0.326259L79.6967 0.326259L79.6967 1.21808ZM83.3189 1.21808L83.3783 1.21808L83.3783 0.326258L83.3189 0.326258L83.3189 1.21808ZM86.9411 1.21808L87.0005 1.21808L87.0005 0.326257L86.9411 0.326257L86.9411 1.21808ZM90.5632 1.21808L90.6226 1.21808L90.6226 0.326257L90.5632 0.326257L90.5632 1.21808ZM94.1854 1.21808L94.2448 1.21808L94.2448 0.326256L94.1854 0.326256L94.1854 1.21808ZM97.8076 1.21808L97.867 1.21808L97.867 0.326255L97.8076 0.326255L97.8076 1.21808ZM101.43 1.21808L101.489 1.21808L101.489 0.326255L101.43 0.326255L101.43 1.21808ZM105.052 1.21808L105.111 1.21808L105.111 0.326254L105.052 0.326254L105.052 1.21808ZM108.674 1.21808L108.733 1.21808L108.733 0.326253L108.674 0.326253L108.674 1.21808ZM112.296 1.21808L112.356 1.21808L112.356 0.326252L112.296 0.326252L112.296 1.21808ZM115.918 1.21808L115.978 1.21808L115.978 0.326252L115.918 0.326252L115.918 1.21808ZM119.541 1.21808L119.6 1.21808L119.6 0.326251L119.541 0.326251L119.541 1.21808ZM123.163 1.21808L123.222 1.21808L123.222 0.32625L123.163 0.32625L123.163 1.21808ZM126.785 1.21808L126.844 1.21808L126.844 0.32625L126.785 0.32625L126.785 1.21808ZM130.407 1.21807L130.466 1.21807L130.466 0.326249L130.407 0.326249L130.407 1.21807ZM134.029 1.21807L134.089 1.21807L134.089 0.326248L134.029 0.326248L134.029 1.21807ZM137.651 1.21807L137.711 1.21807L137.711 0.326248L137.651 0.326248L137.651 1.21807ZM141.274 1.21807L141.333 1.21807L141.333 0.326247L141.274 0.326247L141.274 1.21807ZM144.896 1.21807L144.955 1.21807L144.955 0.326246L144.896 0.326246L144.896 1.21807ZM148.518 1.21807L148.577 1.21807L148.577 0.326246L148.518 0.326246L148.518 1.21807ZM152.14 1.21807L152.2 1.21807L152.2 0.326245L152.14 0.326245L152.14 1.21807ZM155.762 1.21807L155.822 1.21807L155.822 0.326244L155.762 0.326244L155.762 1.21807ZM159.385 1.21807L159.444 1.21807L159.444 0.326244L159.385 0.326244L159.385 1.21807ZM163.007 1.21807L163.066 1.21807L163.066 0.326243L163.007 0.326243L163.007 1.21807ZM166.629 1.21807L166.688 1.21807L166.688 0.326242L166.629 0.326242L166.629 1.21807ZM170.251 1.21807L170.31 1.21807L170.31 0.326242L170.251 0.326242L170.251 1.21807ZM173.873 1.21807L173.933 1.21807L173.933 0.326241L173.873 0.326241L173.873 1.21807ZM177.495 1.21807L177.555 1.21807L177.555 0.32624L177.495 0.32624L177.495 1.21807ZM181.118 1.21807L181.177 1.21807L181.177 0.32624L181.118 0.32624L181.118 1.21807ZM184.74 1.21806L184.799 1.21806L184.799 0.326239L184.74 0.326239L184.74 1.21806ZM188.362 1.21806L188.421 1.21806L188.421 0.326238L188.362 0.326238L188.362 1.21806ZM191.984 1.21806L192.044 1.21806L192.044 0.326238L191.984 0.326238L191.984 1.21806ZM195.606 1.21806L195.666 1.21806L195.666 0.326237L195.606 0.326237L195.606 1.21806ZM199.228 1.21806L199.288 1.21806L199.288 0.326236L199.228 0.326236L199.228 1.21806ZM202.851 1.21806L202.91 1.21806L202.91 0.326236L202.851 0.326236L202.851 1.21806ZM206.473 1.21806L206.532 1.21806L206.532 0.326235L206.473 0.326235L206.473 1.21806ZM210.095 1.21806L210.154 1.21806L210.154 0.326234L210.095 0.326234L210.095 1.21806ZM213.717 1.21806L213.777 1.21806L213.777 0.326234L213.717 0.326234L213.717 1.21806ZM217.339 1.21806L217.399 1.21806L217.399 0.326233L217.339 0.326233L217.339 1.21806ZM220.962 1.21806L221.021 1.21806L221.021 0.326232L220.962 0.326232L220.962 1.21806ZM224.584 1.21806L224.643 1.21806L224.643 0.326231L224.584 0.326231L224.584 1.21806ZM228.206 1.21806L228.265 1.21806L228.265 0.326231L228.206 0.326231L228.206 1.21806ZM231.828 1.21806L231.887 1.21806L231.887 0.32623L231.828 0.32623L231.828 1.21806ZM235.45 1.21806L235.51 1.21805L235.51 0.326229L235.45 0.326229L235.45 1.21806ZM239.072 1.21805L239.132 1.21805L239.132 0.326229L239.072 0.326229L239.072 1.21805ZM242.695 1.21805L242.754 1.21805L242.754 0.326228L242.695 0.326228L242.695 1.21805ZM246.317 1.21805L246.346 1.21805L246.346 0.326227L246.317 0.326227L246.317 1.21805Z" fill="#888888"/>
</svg>
