<svg width="47" height="13" viewBox="0 0 47 13" fill="none" xmlns="http://www.w3.org/2000/svg">
<g clip-path="url(#clip0_1_4752)">
<path d="M4.51428 5.55989C4.48669 5.30174 4.37043 5.10074 4.16549 4.95689C3.96252 4.81304 3.69846 4.74111 3.37331 4.74111C3.14473 4.74111 2.94866 4.7756 2.7851 4.84457C2.62154 4.91354 2.49641 5.00714 2.4097 5.12537C2.323 5.24361 2.27866 5.37859 2.27669 5.53033C2.27669 5.65644 2.30526 5.76581 2.36241 5.85843C2.42153 5.95105 2.50134 6.02987 2.60183 6.0949C2.70233 6.15796 2.81367 6.21116 2.93585 6.25451C3.05802 6.29787 3.18118 6.33432 3.30533 6.36388L3.87286 6.50576C4.10144 6.55897 4.32116 6.63089 4.53201 6.72154C4.74483 6.81219 4.93499 6.92648 5.10249 7.06442C5.27196 7.20236 5.40596 7.36887 5.50449 7.56396C5.60302 7.75905 5.65228 7.98763 5.65228 8.24972C5.65228 8.60442 5.56164 8.91676 5.38034 9.18673C5.19905 9.45473 4.93697 9.66459 4.59409 9.81633C4.25318 9.96609 3.84034 10.041 3.35558 10.041C2.88461 10.041 2.47572 9.96806 2.1289 9.82224C1.78405 9.67642 1.51408 9.46359 1.31899 9.18377C1.12587 8.90395 1.02143 8.56304 1.00567 8.16104H2.08456C2.10032 8.3719 2.16535 8.54728 2.27965 8.68719C2.39394 8.8271 2.54272 8.93154 2.72598 9.00051C2.91121 9.06948 3.11813 9.10396 3.34671 9.10396C3.58515 9.10396 3.79403 9.06849 3.97335 8.99755C4.15465 8.92464 4.29653 8.82414 4.399 8.69606C4.50147 8.566 4.55369 8.41426 4.55566 8.24085C4.55369 8.08321 4.50738 7.95315 4.41673 7.85068C4.32609 7.74624 4.19899 7.65953 4.03543 7.59056C3.87384 7.51962 3.68467 7.45656 3.4679 7.40139L2.77919 7.22404C2.28063 7.09595 1.88652 6.90185 1.59684 6.64173C1.30914 6.37965 1.16529 6.03184 1.16529 5.59831C1.16529 5.24164 1.26184 4.9293 1.45496 4.6613C1.65005 4.39331 1.91509 4.18541 2.25009 4.03762C2.58508 3.88785 2.96442 3.81297 3.38809 3.81297C3.81768 3.81297 4.19406 3.88785 4.51723 4.03762C4.84238 4.18541 5.09757 4.39134 5.2828 4.65539C5.46804 4.91748 5.56361 5.21898 5.56952 5.55989H4.51428ZM7.65266 7.28907V9.94934H6.58264V3.89574H7.62902V6.18062H7.68222C7.78863 5.92444 7.95318 5.72246 8.17585 5.57467C8.4005 5.4249 8.68623 5.35002 9.03305 5.35002C9.34834 5.35002 9.62324 5.41603 9.85774 5.54806C10.0922 5.68009 10.2735 5.87321 10.4016 6.12741C10.5317 6.38162 10.5967 6.69198 10.5967 7.05851V9.94934H9.52668V7.22404C9.52668 6.9186 9.44786 6.68114 9.29021 6.51167C9.13453 6.34023 8.9158 6.25451 8.63401 6.25451C8.44483 6.25451 8.27536 6.2959 8.1256 6.37866C7.97781 6.45945 7.86154 6.5767 7.77681 6.73041C7.69404 6.88411 7.65266 7.07033 7.65266 7.28907ZM13.6678 10.038C13.2245 10.038 12.8402 9.94047 12.5151 9.74539C12.1899 9.5503 11.9377 9.27737 11.7584 8.92661C11.581 8.57585 11.4923 8.16597 11.4923 7.69697C11.4923 7.22798 11.581 6.81711 11.7584 6.46438C11.9377 6.11165 12.1899 5.83774 12.5151 5.64265C12.8402 5.44756 13.2245 5.35002 13.6678 5.35002C14.1112 5.35002 14.4955 5.44756 14.8206 5.64265C15.1458 5.83774 15.397 6.11165 15.5744 6.46438C15.7537 6.81711 15.8434 7.22798 15.8434 7.69697C15.8434 8.16597 15.7537 8.57585 15.5744 8.92661C15.397 9.27737 15.1458 9.5503 14.8206 9.74539C14.4955 9.94047 14.1112 10.038 13.6678 10.038ZM13.6738 9.18082C13.9142 9.18082 14.1152 9.1148 14.2767 8.98277C14.4383 8.84878 14.5585 8.66945 14.6374 8.44481C14.7182 8.22016 14.7586 7.9699 14.7586 7.69402C14.7586 7.41617 14.7182 7.16492 14.6374 6.94027C14.5585 6.71366 14.4383 6.53335 14.2767 6.39935C14.1152 6.26535 13.9142 6.19835 13.6738 6.19835C13.4274 6.19835 13.2225 6.26535 13.0589 6.39935C12.8973 6.53335 12.7762 6.71366 12.6954 6.94027C12.6165 7.16492 12.5771 7.41617 12.5771 7.69402C12.5771 7.9699 12.6165 8.22016 12.6954 8.44481C12.7762 8.66945 12.8973 8.84878 13.0589 8.98277C13.2225 9.1148 13.4274 9.18082 13.6738 9.18082ZM17.5585 9.94934L16.2756 5.40914H17.3664L18.1644 8.60147H18.2058L19.0216 5.40914H20.1005L20.9164 8.58373H20.9607L21.7469 5.40914H22.8406L21.5548 9.94934H20.4405L19.5892 6.88116H19.5271L18.6758 9.94934H17.5585ZM25.6524 9.94934V5.40914H26.6751V6.18062H26.7283C26.8229 5.9205 26.9796 5.71753 27.1983 5.57171C27.417 5.42392 27.6781 5.35002 27.9816 5.35002C28.289 5.35002 28.5481 5.4249 28.759 5.57467C28.9718 5.72246 29.1216 5.92444 29.2083 6.18062H29.2556C29.3561 5.92838 29.5255 5.72739 29.764 5.57762C30.0044 5.42589 30.2891 5.35002 30.6182 5.35002C31.036 5.35002 31.3769 5.48205 31.641 5.74611C31.905 6.01016 32.037 6.39541 32.037 6.90185V9.94934H30.9641V7.06738C30.9641 6.78558 30.8892 6.57966 30.7394 6.4496C30.5897 6.31757 30.4064 6.25156 30.1896 6.25156C29.9315 6.25156 29.7295 6.33235 29.5837 6.49394C29.4398 6.65356 29.3679 6.86145 29.3679 7.11763V9.94934H28.3186V7.02304C28.3186 6.78854 28.2476 6.60134 28.1057 6.46142C27.9658 6.32151 27.7826 6.25156 27.556 6.25156C27.4023 6.25156 27.2623 6.29097 27.1362 6.36979C27.0101 6.44665 26.9096 6.55601 26.8347 6.69789C26.7598 6.8378 26.7224 7.00136 26.7224 7.18857V9.94934H25.6524ZM35.103 10.038C34.6596 10.038 34.2754 9.94047 33.9502 9.74539C33.6251 9.5503 33.3728 9.27737 33.1935 8.92661C33.0162 8.57585 32.9275 8.16597 32.9275 7.69697C32.9275 7.22798 33.0162 6.81711 33.1935 6.46438C33.3728 6.11165 33.6251 5.83774 33.9502 5.64265C34.2754 5.44756 34.6596 5.35002 35.103 5.35002C35.5464 5.35002 35.9306 5.44756 36.2558 5.64265C36.5809 5.83774 36.8322 6.11165 37.0095 6.46438C37.1889 6.81711 37.2785 7.22798 37.2785 7.69697C37.2785 8.16597 37.1889 8.57585 37.0095 8.92661C36.8322 9.27737 36.5809 9.5503 36.2558 9.74539C35.9306 9.94047 35.5464 10.038 35.103 10.038ZM35.1089 9.18082C35.3493 9.18082 35.5503 9.1148 35.7119 8.98277C35.8735 8.84878 35.9937 8.66945 36.0725 8.44481C36.1533 8.22016 36.1937 7.9699 36.1937 7.69402C36.1937 7.41617 36.1533 7.16492 36.0725 6.94027C35.9937 6.71366 35.8735 6.53335 35.7119 6.39935C35.5503 6.26535 35.3493 6.19835 35.1089 6.19835C34.8626 6.19835 34.6577 6.26535 34.4941 6.39935C34.3325 6.53335 34.2113 6.71366 34.1305 6.94027C34.0517 7.16492 34.0123 7.41617 34.0123 7.69402C34.0123 7.9699 34.0517 8.22016 34.1305 8.44481C34.2113 8.66945 34.3325 8.84878 34.4941 8.98277C34.6577 9.1148 34.8626 9.18082 35.1089 9.18082ZM38.1867 9.94934V5.40914H39.2242V6.16584H39.2715C39.3543 5.90375 39.4962 5.70177 39.6972 5.55989C39.9001 5.41603 40.1317 5.34411 40.3918 5.34411C40.4509 5.34411 40.5169 5.34706 40.5898 5.35298C40.6647 5.35692 40.7268 5.36381 40.776 5.37367V6.35797C40.7307 6.3422 40.6588 6.32841 40.5603 6.31659C40.4637 6.30279 40.3701 6.2959 40.2795 6.2959C40.0844 6.2959 39.909 6.33826 39.7533 6.423C39.5996 6.50576 39.4784 6.62104 39.3897 6.76883C39.3011 6.91663 39.2567 7.08708 39.2567 7.2802V9.94934H38.1867ZM43.31 10.038C42.8548 10.038 42.4616 9.94343 42.1306 9.75425C41.8015 9.56311 41.5483 9.29314 41.3709 8.94435C41.1936 8.59359 41.1049 8.18075 41.1049 7.70584C41.1049 7.23882 41.1936 6.82894 41.3709 6.4762C41.5502 6.1215 41.8005 5.84562 42.1217 5.64856C42.4429 5.44953 42.8203 5.35002 43.2538 5.35002C43.5336 5.35002 43.7977 5.39534 44.046 5.48599C44.2962 5.57467 44.5169 5.71261 44.7081 5.89981C44.9012 6.08702 45.0529 6.32545 45.1633 6.61513C45.2736 6.90283 45.3288 7.24571 45.3288 7.64377V7.97187H41.6074V7.25064H44.3031C44.3012 7.0457 44.2568 6.86342 44.1701 6.7038C44.0834 6.54222 43.9622 6.41512 43.8065 6.3225C43.6528 6.22988 43.4735 6.18357 43.2686 6.18357C43.0498 6.18357 42.8577 6.23678 42.6922 6.34319C42.5267 6.44763 42.3976 6.58557 42.305 6.75701C42.2143 6.92648 42.168 7.1127 42.166 7.31567V7.94527C42.166 8.20932 42.2143 8.43594 42.3109 8.62511C42.4074 8.81232 42.5424 8.95617 42.7158 9.05667C42.8892 9.1552 43.0922 9.20446 43.3247 9.20446C43.4804 9.20446 43.6213 9.18279 43.7474 9.13943C43.8735 9.09411 43.9829 9.0281 44.0755 8.94139C44.1681 8.85469 44.2381 8.74729 44.2854 8.6192L45.2845 8.73153C45.2214 8.99558 45.1012 9.22614 44.9239 9.4232C44.7485 9.61828 44.5238 9.77002 44.2499 9.8784C43.976 9.98481 43.6627 10.038 43.31 10.038Z" fill="#6941C6"/>
</g>
<defs>
<clipPath id="clip0_1_4752">
<rect width="46" height="12" fill="white" transform="translate(0.627319 0.949341)"/>
</clipPath>
</defs>
</svg>
