<svg width="16" height="15" viewBox="0 0 16 15" fill="none" xmlns="http://www.w3.org/2000/svg">
<g id="cart-check">
<path id="Vector 41" d="M7.09839 3.48135L8.28749 4.96773L10.6657 2.58952" stroke="#1DBF73" stroke-width="1.1891" stroke-linecap="round" stroke-linejoin="round"/>
<path id="Rectangle 84" d="M4.12561 3.77863H5.01744M5.01744 8.23775H11.0816C11.5711 8.23775 12.0105 7.93784 12.1889 7.48205L13.3209 4.58987C13.4735 4.19994 13.186 3.77863 12.7672 3.77863H12.152" stroke="#1DBF73" stroke-width="1.1891" stroke-linecap="round" stroke-linejoin="round"/>
<path id="Vector 80" d="M2.63928 1.99498H2.79708C3.38884 1.99498 3.89054 2.43011 3.97423 3.01592L4.87164 9.29775C4.95532 9.88356 5.45703 10.3187 6.04878 10.3187H11.2603" stroke="#1DBF73" stroke-width="1.1891" stroke-linecap="round" stroke-linejoin="round"/>
<ellipse id="Ellipse 26" cx="11.2602" cy="11.2105" rx="0.891826" ry="0.891826" transform="rotate(90 11.2602 11.2105)" stroke="#1DBF73" stroke-width="1.1891" stroke-linejoin="round"/>
<ellipse id="Ellipse 26_2" cx="5.61196" cy="11.2105" rx="0.891826" ry="0.891826" transform="rotate(90 5.61196 11.2105)" stroke="#1DBF73" stroke-width="1.1891" stroke-linejoin="round"/>
</g>
</svg>
