<svg width="15" height="15" viewBox="0 0 15 15" fill="none" xmlns="http://www.w3.org/2000/svg">
<g id="credit-card-hand">
<path id="Rectangle 50" d="M9.43738 6.8193L9.43738 3.25199C9.43738 2.75945 9.03809 2.36017 8.54555 2.36017L3.78915 2.36017C3.29661 2.36017 2.89732 2.75945 2.89732 3.252L2.89732 10.3866C2.89732 10.8791 3.29661 11.2784 3.78915 11.2784L8.24828 11.2784" stroke="#FF0A80" stroke-width="1.1891" stroke-linejoin="round"/>
<path id="Vector 42" d="M7.05914 2.36017L7.05914 8.30567" stroke="#FF0A80" stroke-width="1.1891"/>
<path id="Vector 43" d="M4.97827 4.73837L4.97827 5.23383" stroke="#FF0A80" stroke-width="1.1891" stroke-linecap="round"/>
<path id="Vector 5992" d="M8.54553 13.0621V11.873L6.8432 9.44105C6.62423 9.12824 6.66143 8.70337 6.93143 8.43337V8.43337C7.18235 8.18245 7.57017 8.13051 7.87827 8.30657L9.43735 9.19747V4.44107L10.5164 5.40023C11.5318 6.30284 12.1128 7.5966 12.1128 8.95521V13.0621" stroke="#FF0A80" stroke-width="1.1891" stroke-linecap="round" stroke-linejoin="round"/>
</g>
</svg>
