<svg width="15" height="15" viewBox="0 0 15 15" fill="none" xmlns="http://www.w3.org/2000/svg">
<g id="credit-card-hand">
<path id="Rectangle 50" d="M9.43738 6.45411L9.43738 2.88681C9.43738 2.39426 9.03809 1.99498 8.54555 1.99498L3.78915 1.99498C3.29661 1.99498 2.89732 2.39426 2.89732 2.88681L2.89732 10.0214C2.89732 10.514 3.29661 10.9132 3.78915 10.9132L8.24828 10.9132" stroke="#FF9F0A" stroke-width="1.1891" stroke-linejoin="round"/>
<path id="Vector 42" d="M7.05914 1.99498L7.05914 7.94048" stroke="#FF9F0A" stroke-width="1.1891"/>
<path id="Vector 43" d="M4.97827 4.37317L4.97827 4.86863" stroke="#FF9F0A" stroke-width="1.1891" stroke-linecap="round"/>
<path id="Vector 5992" d="M8.54553 12.6969V11.5078L6.8432 9.07588C6.62423 8.76307 6.66143 8.3382 6.93143 8.0682V8.0682C7.18235 7.81727 7.57017 7.76534 7.87827 7.9414L9.43735 8.8323V4.0759L10.5164 5.03506C11.5318 5.93767 12.1128 7.23143 12.1128 8.59004V12.6969" stroke="#FF9F0A" stroke-width="1.1891" stroke-linecap="round" stroke-linejoin="round"/>
</g>
</svg>
