<svg width="13" height="13" viewBox="0 0 13 13" fill="none" xmlns="http://www.w3.org/2000/svg">
<g id="dots-vertical">
<g id="Icon">
<path d="M6.68198 7.39574C6.95562 7.39574 7.17744 7.17392 7.17744 6.90028C7.17744 6.62665 6.95562 6.40483 6.68198 6.40483C6.40835 6.40483 6.18652 6.62665 6.18652 6.90028C6.18652 7.17392 6.40835 7.39574 6.68198 7.39574Z" stroke="#98A2B3" stroke-width="0.990917" stroke-linecap="round" stroke-linejoin="round"/>
<path d="M6.68198 3.92753C6.95562 3.92753 7.17744 3.70571 7.17744 3.43207C7.17744 3.15844 6.95562 2.93661 6.68198 2.93661C6.40835 2.93661 6.18652 3.15844 6.18652 3.43207C6.18652 3.70571 6.40835 3.92753 6.68198 3.92753Z" stroke="#98A2B3" stroke-width="0.990917" stroke-linecap="round" stroke-linejoin="round"/>
<path d="M6.68198 10.864C6.95562 10.864 7.17744 10.6421 7.17744 10.3685C7.17744 10.0949 6.95562 9.87304 6.68198 9.87304C6.40835 9.87304 6.18652 10.0949 6.18652 10.3685C6.18652 10.6421 6.40835 10.864 6.68198 10.864Z" stroke="#98A2B3" stroke-width="0.990917" stroke-linecap="round" stroke-linejoin="round"/>
</g>
</g>
</svg>
