<svg width="13" height="13" viewBox="0 0 13 13" fill="none" xmlns="http://www.w3.org/2000/svg">
<g id="Frame">
<path id="Vector" d="M6.72668 11.3006C9.46161 11.3006 11.6813 9.08094 11.6813 6.34601C11.6813 3.61108 9.46161 1.39142 6.72668 1.39142C3.99175 1.39142 1.77209 3.61108 1.77209 6.34601C1.77209 9.08094 3.99175 11.3006 6.72668 11.3006ZM6.72668 2.38234C8.91661 2.38234 10.6904 4.15608 10.6904 6.34601C10.6904 8.53594 8.91661 10.3097 6.72668 10.3097C4.53675 10.3097 2.76301 8.53594 2.76301 6.34601C2.76301 4.15608 4.53675 2.38234 6.72668 2.38234ZM7.22214 6.34601H8.70852L6.72668 4.36418L4.74485 6.34601H6.23122V8.32785H7.22214V6.34601Z" fill="#1DBF73"/>
</g>
</svg>
