<svg width="13" height="13" viewBox="0 0 13 13" fill="none" xmlns="http://www.w3.org/2000/svg">
<g id="Frame">
<path id="Vector" d="M6.12622 1.39139C8.86115 1.39139 11.0808 3.61104 11.0808 6.34597C11.0808 9.08091 8.86115 11.3006 6.12622 11.3006C3.39129 11.3006 1.17163 9.08091 1.17163 6.34597C1.17163 3.61104 3.39129 1.39139 6.12622 1.39139ZM6.12622 10.3096C8.31614 10.3096 10.0899 8.5359 10.0899 6.34597C10.0899 4.15605 8.31614 2.38231 6.12622 2.38231C3.93629 2.38231 2.16255 4.15605 2.16255 6.34597C2.16255 8.5359 3.93629 10.3096 6.12622 10.3096ZM6.62168 6.34597H8.10805L6.12622 8.32781L4.14438 6.34597H5.63076V4.36414H6.62168V6.34597Z" fill="#FC5452"/>
</g>
</svg>
