<svg width="16" height="16" viewBox="0 0 16 16" fill="none" xmlns="http://www.w3.org/2000/svg">
<g id="material-symbols:more-horiz">
<path id="Vector" d="M3.42219 7.91126V7.91115C3.42219 7.60801 3.52918 7.3506 3.74567 7.13411C3.96215 6.91762 4.21933 6.81086 4.522 6.81123H4.52211C4.82525 6.81123 5.08266 6.91822 5.29915 7.1347C5.51563 7.35119 5.6224 7.60837 5.62203 7.91104V7.91115C5.62203 8.21429 5.51504 8.4717 5.29855 8.68819C5.08207 8.90467 4.82489 9.01143 4.52222 9.01107H4.52211C4.21897 9.01107 3.96156 8.90408 3.74507 8.68759C3.52859 8.47111 3.42182 8.21393 3.42219 7.91126ZM8.0893 6.81123H8.08941C8.39255 6.81123 8.64996 6.91822 8.86645 7.1347C9.08294 7.35119 9.1897 7.60837 9.18933 7.91104V7.91115C9.18933 8.21429 9.08234 8.4717 8.86586 8.68819C8.64937 8.90467 8.39219 9.01143 8.08952 9.01107H8.08941C7.78627 9.01107 7.52886 8.90408 7.31237 8.68759C7.09589 8.47111 6.98913 8.21393 6.98949 7.91126V7.91115C6.98949 7.60801 7.09648 7.3506 7.31297 7.13411C7.52945 6.91762 7.78663 6.81086 8.0893 6.81123ZM11.6566 6.81123H11.6567C11.9599 6.81123 12.2173 6.91822 12.4338 7.1347C12.6502 7.35119 12.757 7.60837 12.7566 7.91104V7.91115C12.7566 8.21429 12.6496 8.4717 12.4332 8.68819C12.2167 8.90467 11.9595 9.01143 11.6568 9.01107H11.6567C11.3536 9.01107 11.0962 8.90408 10.8797 8.68759C10.6632 8.47111 10.5564 8.21393 10.5568 7.91126V7.91115C10.5568 7.60801 10.6638 7.3506 10.8803 7.13411C11.0968 6.91762 11.3539 6.81086 11.6566 6.81123ZM9.27851 7.91115C9.27851 8.23815 9.16198 8.51818 8.92892 8.75125C8.69585 8.98431 8.41602 9.10065 8.08941 9.10025L9.27851 7.91115ZM12.8458 7.91115C12.8458 8.23815 12.7293 8.51818 12.4962 8.75125C12.2632 8.98431 11.9833 9.10065 11.6567 9.10025L12.8458 7.91115Z" fill="#888888" stroke="white" stroke-width="0.178365"/>
</g>
</svg>
