<svg width="29" height="20" viewBox="0 0 29 20" fill="none" xmlns="http://www.w3.org/2000/svg">
<g id="Payment method icon">
<rect x="1.21988" y="0.334934" width="26.7548" height="18.4311" rx="2.08093" fill="white"/>
<rect x="1.21988" y="0.334934" width="26.7548" height="18.4311" rx="2.08093" stroke="#EAECF0" stroke-width="0.59455"/>
<path id="ApplePay" fill-rule="evenodd" clip-rule="evenodd" d="M8.47123 6.65156C8.24128 6.93052 7.87336 7.15055 7.50544 7.11911C7.45945 6.74193 7.63958 6.34117 7.85036 6.09364C8.08031 5.80682 8.48272 5.60251 8.80849 5.58679C8.84681 5.97969 8.69734 6.36474 8.47123 6.65156ZM8.80462 7.19373C8.48049 7.1746 8.18474 7.29366 7.94585 7.38983C7.79212 7.45172 7.66194 7.50412 7.5629 7.50412C7.45175 7.50412 7.3162 7.44891 7.164 7.38693C6.96457 7.30571 6.73656 7.21285 6.49746 7.2173C5.94942 7.22516 5.43969 7.54341 5.15992 8.05026C4.58505 9.06394 5.01045 10.5648 5.56617 11.3899C5.83827 11.7985 6.16404 12.2465 6.59327 12.2307C6.78211 12.2234 6.91795 12.1643 7.05854 12.1032C7.22038 12.0328 7.38852 11.9596 7.65104 11.9596C7.90447 11.9596 8.06525 12.0309 8.21959 12.0993C8.36634 12.1643 8.50727 12.2267 8.71648 12.2229C9.16105 12.215 9.44082 11.8143 9.71293 11.4056C10.0066 10.9671 10.1356 10.5391 10.1552 10.4741L10.1575 10.4666C10.157 10.4661 10.1534 10.4644 10.147 10.4614C10.0488 10.4153 9.29855 10.0632 9.29135 9.11895C9.28413 8.32638 9.88646 7.92481 9.98128 7.8616L9.98129 7.86159C9.98705 7.85775 9.99094 7.85516 9.9927 7.8538C9.60945 7.27231 9.01158 7.20944 8.80462 7.19373ZM11.8821 12.1797V6.05433H14.1242C15.2816 6.05433 16.0902 6.87157 16.0902 8.06599C16.0902 9.26042 15.2662 10.0855 14.0935 10.0855H12.8096V12.1797H11.8821ZM12.8095 6.85587H13.8788C14.6836 6.85587 15.1435 7.29592 15.1435 8.06994C15.1435 8.84396 14.6836 9.28794 13.875 9.28794H12.8095V6.85587ZM19.1524 11.4449C18.9072 11.9243 18.3668 12.2268 17.7842 12.2268C16.9219 12.2268 16.3202 11.7003 16.3202 10.9067C16.3202 10.1209 16.9028 9.66902 17.9797 9.60223L19.1371 9.53151V9.19361C19.1371 8.69463 18.819 8.42352 18.2518 8.42352C17.7842 8.42352 17.4431 8.67105 17.3742 9.04824H16.5387C16.5655 8.25458 17.2937 7.67701 18.2786 7.67701C19.3402 7.67701 20.0301 8.24672 20.0301 9.13075V12.1797H19.1716V11.4449H19.1524ZM18.0333 11.5C17.5389 11.5 17.2246 11.2564 17.2246 10.8831C17.2246 10.4981 17.5274 10.2741 18.1061 10.2388L19.1371 10.172V10.5177C19.1371 11.0914 18.6618 11.5 18.0333 11.5ZM22.8776 12.4194C22.5058 13.492 22.0804 13.8456 21.176 13.8456C21.107 13.8456 20.877 13.8378 20.8234 13.8221V13.0873C20.8809 13.0952 21.0227 13.1031 21.0955 13.1031C21.5056 13.1031 21.7355 12.9263 21.8773 12.4666L21.9616 12.1955L20.3903 7.73601H21.3599L22.4522 11.3546H22.4713L23.5636 7.73601H24.5064L22.8776 12.4194Z" fill="black"/>
</g>
</svg>
