<svg width="29" height="20" viewBox="0 0 29 20" fill="none" xmlns="http://www.w3.org/2000/svg">
<g id="Payment method icon">
<rect x="1.21988" y="0.912021" width="26.7548" height="18.4311" rx="2.08093" fill="white"/>
<rect x="1.21988" y="0.912021" width="26.7548" height="18.4311" rx="2.08093" stroke="#EAECF0" stroke-width="0.59455"/>
<g id="PayPal">
<path id="Fill 7" fill-rule="evenodd" clip-rule="evenodd" d="M12.5077 15.2393L12.6827 14.0906L12.2929 14.0812H10.4316L11.7252 5.60399C11.7292 5.57832 11.7422 5.55449 11.7613 5.53754C11.7804 5.52059 11.8047 5.51129 11.8302 5.51129H14.9686C16.0106 5.51129 16.7297 5.73535 17.105 6.17765C17.281 6.38514 17.3931 6.60202 17.4474 6.84061C17.5043 7.09101 17.5052 7.39014 17.4497 7.75504L17.4457 7.78158V8.01542L17.6217 8.11849C17.7699 8.19976 17.8877 8.29276 17.978 8.39921C18.1285 8.57668 18.2259 8.80218 18.267 9.06944C18.3096 9.34435 18.2955 9.67157 18.2259 10.042C18.1456 10.468 18.0158 10.8391 17.8404 11.1427C17.6792 11.4225 17.4738 11.6546 17.2298 11.8343C16.9969 12.0052 16.7203 12.1349 16.4074 12.2179C16.1043 12.2995 15.7586 12.3407 15.3795 12.3407H15.1353C14.9607 12.3407 14.791 12.4057 14.6579 12.5222C14.5243 12.6412 14.436 12.8037 14.4089 12.9815L14.3905 13.0849L14.0813 15.1097L14.0673 15.184C14.0636 15.2076 14.0572 15.2193 14.0478 15.2272C14.0395 15.2345 14.0275 15.2393 14.0158 15.2393H12.5077" fill="#28356A"/>
<path id="Fill 8" fill-rule="evenodd" clip-rule="evenodd" d="M17.7885 7.80865C17.7792 7.87055 17.7684 7.93381 17.7564 7.99881C17.3426 10.1952 15.9265 10.954 14.1181 10.954H13.1973C12.9761 10.954 12.7897 11.1199 12.7553 11.3454L12.1504 15.3117C12.128 15.4598 12.2384 15.5931 12.3829 15.5931H14.0161C14.2094 15.5931 14.3737 15.4479 14.4041 15.2508L14.4202 15.1651L14.7277 13.1482L14.7474 13.0376C14.7775 12.8398 14.9422 12.6945 15.1355 12.6945H15.3798C16.9621 12.6945 18.2008 12.0305 18.5628 10.1091C18.714 9.30643 18.6357 8.6362 18.2355 8.16484C18.1144 8.02273 17.9642 7.90475 17.7885 7.80865" fill="#298FC2"/>
<path id="Fill 9" fill-rule="evenodd" clip-rule="evenodd" d="M17.3554 7.63022C17.2921 7.61114 17.2269 7.59389 17.16 7.5783C17.0927 7.56309 17.0238 7.54963 16.9529 7.53781C16.7046 7.49635 16.4325 7.47668 16.1412 7.47668H13.6813C13.6206 7.47668 13.5631 7.49083 13.5116 7.5164C13.3981 7.57278 13.3139 7.68379 13.2935 7.81969L12.7701 11.2455L12.7551 11.3454C12.7895 11.1199 12.9759 10.9539 13.1971 10.9539H14.1179C15.9263 10.9539 17.3424 10.1948 17.7562 7.9988C17.7686 7.9338 17.779 7.87055 17.7883 7.80865C17.6836 7.75121 17.5702 7.7021 17.4481 7.66025C17.4179 7.64988 17.3868 7.63991 17.3554 7.63022" fill="#22284F"/>
<path id="Fill 11" fill-rule="evenodd" clip-rule="evenodd" d="M13.2936 7.81968C13.3141 7.68377 13.3983 7.57276 13.5118 7.51677C13.5637 7.4911 13.6208 7.47696 13.6815 7.47696H16.1413C16.4327 7.47696 16.7048 7.49672 16.9531 7.53818C17.024 7.5499 17.0929 7.56346 17.1602 7.57867C17.2271 7.59417 17.2923 7.61151 17.3556 7.63049C17.387 7.64018 17.4181 7.65025 17.4486 7.66023C17.5707 7.70208 17.6842 7.75158 17.7889 7.80863C17.912 6.99698 17.7878 6.44435 17.3633 5.94393C16.8951 5.39294 16.0503 5.15717 14.9693 5.15717H11.8308C11.61 5.15717 11.4216 5.3231 11.3875 5.549L10.0802 14.1134C10.0545 14.2828 10.1809 14.4357 10.3462 14.4357H12.2838L13.2936 7.81968" fill="#28356A"/>
</g>
</g>
</svg>
