<svg width="29" height="20" viewBox="0 0 29 20" fill="none" xmlns="http://www.w3.org/2000/svg">
<g id="Payment method icon">
<rect x="1.21988" y="0.489078" width="26.7548" height="18.4311" rx="2.08093" fill="white"/>
<rect x="1.21988" y="0.489078" width="26.7548" height="18.4311" rx="2.08093" stroke="#EAECF0" stroke-width="0.59455"/>
<g id="Mastercard">
<path id="Left" fill-rule="evenodd" clip-rule="evenodd" d="M14.5409 13.5331C13.6023 14.3243 12.3847 14.8019 11.0542 14.8019C8.08555 14.8019 5.67896 12.4239 5.67896 9.49058C5.67896 6.55722 8.08555 4.17926 11.0542 4.17926C12.3847 4.17926 13.6023 4.65689 14.5409 5.44809C15.4796 4.6569 16.6972 4.17928 18.0276 4.17928C20.9963 4.17928 23.4029 6.55723 23.4029 9.49059C23.4029 12.424 20.9963 14.8019 18.0276 14.8019C16.6971 14.8019 15.4796 14.3243 14.5409 13.5331Z" fill="#ED0006"/>
<path id="Right" fill-rule="evenodd" clip-rule="evenodd" d="M14.5409 13.5331C15.6966 12.5589 16.4295 11.1093 16.4295 9.49058C16.4295 7.87185 15.6966 6.42226 14.5409 5.44806C15.4795 4.65688 16.6971 4.17926 18.0276 4.17926C20.9962 4.17926 23.4028 6.55722 23.4028 9.49058C23.4028 12.4239 20.9962 14.8019 18.0276 14.8019C16.6971 14.8019 15.4795 14.3243 14.5409 13.5331Z" fill="#F9A000"/>
<path id="Middle" fill-rule="evenodd" clip-rule="evenodd" d="M14.5409 13.5331C15.6967 12.5589 16.4295 11.1093 16.4295 9.49062C16.4295 7.8719 15.6967 6.42231 14.5409 5.44812C13.3852 6.42231 12.6523 7.8719 12.6523 9.49062C12.6523 11.1093 13.3852 12.5589 14.5409 13.5331Z" fill="#FF5E00"/>
</g>
</g>
</svg>
