<svg width="29" height="20" viewBox="0 0 29 20" fill="none" xmlns="http://www.w3.org/2000/svg">
<g id="Payment method icon">
<rect x="1.21988" y="0.681461" width="26.7548" height="18.4311" rx="2.08093" fill="white"/>
<rect x="1.21988" y="0.681461" width="26.7548" height="18.4311" rx="2.08093" stroke="#EAECF0" stroke-width="0.59455"/>
<path id="visa-logo" fill-rule="evenodd" clip-rule="evenodd" d="M9.44475 12.9555H7.81192L6.5875 8.14691C6.52939 7.92571 6.40599 7.73016 6.22447 7.63799C5.77149 7.40638 5.27232 7.22205 4.72778 7.12908V6.94395H7.35814C7.72117 6.94395 7.99344 7.22205 8.03881 7.54503L8.67411 11.0136L10.3061 6.94395H11.8936L9.44475 12.9555ZM12.8012 12.9555H11.2591L12.5289 6.94395H14.071L12.8012 12.9555ZM16.066 8.60936C16.1114 8.28558 16.3837 8.10045 16.7013 8.10045C17.2005 8.05397 17.7442 8.14693 18.198 8.37775L18.4703 7.08343C18.0165 6.8983 17.5173 6.80533 17.0644 6.80533C15.5677 6.80533 14.4786 7.63802 14.4786 8.79369C14.4786 9.67287 15.25 10.1345 15.7946 10.4126C16.3837 10.6899 16.6106 10.875 16.5652 11.1523C16.5652 11.5683 16.1114 11.7534 15.6584 11.7534C15.1139 11.7534 14.5693 11.6148 14.071 11.3831L13.7987 12.6783C14.3432 12.9091 14.9324 13.002 15.4769 13.002C17.1551 13.0477 18.198 12.2158 18.198 10.9672C18.198 9.39477 16.066 9.30261 16.066 8.60936ZM23.5949 12.9555L22.3704 6.94395H21.0553C20.783 6.94395 20.5107 7.12908 20.42 7.40638L18.1526 12.9555H19.7401L20.0569 12.0772H22.0074L22.1889 12.9555H23.5949ZM21.2821 8.56285L21.7351 10.8285H20.4653L21.2821 8.56285Z" fill="#172B85"/>
</g>
</svg>
