<svg width="29" height="20" viewBox="0 0 29 20" fill="none" xmlns="http://www.w3.org/2000/svg">
<g id="Payment method icon">
<rect x="1.21988" y="0.296726" width="26.7548" height="18.4311" rx="2.08093" fill="white"/>
<rect x="1.21988" y="0.296726" width="26.7548" height="18.4311" rx="2.08093" stroke="#EAECF0" stroke-width="0.59455"/>
<path id="Stripe" fill-rule="evenodd" clip-rule="evenodd" d="M15.4044 6.45381L14.0353 6.75629V5.61359L15.4044 5.31671V6.45381ZM18.2517 7.08679C17.7172 7.08679 17.3735 7.34446 17.1826 7.52371L17.1117 7.17641H15.9116V13.7078L17.2753 13.4109L17.2808 11.8257C17.4772 11.9713 17.7663 12.1785 18.2463 12.1785C19.2227 12.1785 20.1118 11.3719 20.1118 9.59626C20.1064 7.97183 19.2063 7.08679 18.2517 7.08679ZM17.9245 10.9462C17.6027 10.9462 17.4118 10.8285 17.2808 10.6829L17.2754 8.60476C17.4172 8.44231 17.6136 8.33029 17.9245 8.33029C18.4209 8.33029 18.7645 8.90164 18.7645 9.63543C18.7645 10.386 18.4263 10.9462 17.9245 10.9462ZM24.4102 9.65227C24.4102 8.21829 23.7338 7.08679 22.4411 7.08679C21.1428 7.08679 20.3573 8.21829 20.3573 9.64107C20.3573 11.3271 21.2847 12.1785 22.6156 12.1785C23.2647 12.1785 23.7557 12.0273 24.1266 11.8144V10.6941C23.7557 10.8846 23.3302 11.0022 22.7902 11.0022C22.2611 11.0022 21.7919 10.8118 21.7319 10.1508H24.3993C24.3993 10.1199 24.4013 10.0498 24.4035 9.96899L24.4036 9.96887V9.96885V9.96881L24.4036 9.96869V9.96867C24.4066 9.85895 24.4102 9.72964 24.4102 9.65227ZM21.7155 9.12012C21.7155 8.48716 22.0919 8.22389 22.4355 8.22389C22.7683 8.22389 23.1228 8.48716 23.1228 9.12012H21.7155ZM14.0352 7.18201H15.4044V12.0833H14.0352V7.18201ZM12.4807 7.182L12.568 7.59651C12.8898 6.99154 13.528 7.11478 13.7026 7.182V8.47034C13.5335 8.40872 12.988 8.3303 12.6662 8.76161V12.0833H11.3025V7.182H12.4807ZM9.84053 5.96649L8.50956 6.25777L8.50411 10.7446C8.50411 11.5736 9.10959 12.1841 9.9169 12.1841C10.3642 12.1841 10.6915 12.1001 10.8715 11.9993V10.8622C10.6969 10.935 9.83508 11.1927 9.83508 10.3637V8.37513H10.8715V7.18202H9.83508L9.84053 5.96649ZM6.61679 8.30231C6.32769 8.30231 6.15313 8.38634 6.15313 8.60479C6.15313 8.84332 6.45354 8.94824 6.82623 9.07841C7.43381 9.29062 8.23348 9.56992 8.23686 10.6045C8.23686 11.6072 7.45683 12.1841 6.32223 12.1841C5.85312 12.1841 5.34037 12.0889 4.83307 11.8649V10.5317C5.29128 10.7894 5.86948 10.9798 6.32223 10.9798C6.6277 10.9798 6.84589 10.8958 6.84589 10.6381C6.84589 10.3739 6.52024 10.2532 6.1271 10.1074C5.52836 9.88533 4.77307 9.60524 4.77307 8.67201C4.77307 7.68055 5.50947 7.08679 6.61679 7.08679C7.06954 7.08679 7.51683 7.15961 7.96958 7.34446V8.66081C7.55501 8.43115 7.03135 8.30231 6.61679 8.30231Z" fill="#6461FC"/>
</g>
</svg>
