<svg width="15" height="16" viewBox="0 0 15 16" fill="none" xmlns="http://www.w3.org/2000/svg">
<g id="pos-terminal">
<path id="Rectangle 10706" d="M2.60004 3.15479V9.69484C2.60004 10.3516 3.13242 10.8839 3.78914 10.8839H9.14009C9.79681 10.8839 10.3292 10.3516 10.3292 9.69484V3.15479" stroke="#5654D4" stroke-width="1.1891" stroke-linecap="round" stroke-linejoin="round"/>
<path id="Rectangle 10706_2" d="M3.78912 10.8839V12.6676C3.78912 12.9959 4.05531 13.2621 4.38367 13.2621H8.54553C8.87389 13.2621 9.14008 12.9959 9.14008 12.6676V10.8839M5.87005 13.2621V10.8839" stroke="#5654D4" stroke-width="1.1891" stroke-linecap="round" stroke-linejoin="round"/>
<path id="Vector 5598" d="M12.4102 3.15479V10.8839" stroke="#5654D4" stroke-width="1.1891" stroke-linecap="round" stroke-linejoin="round"/>
<path id="Rectangle 10707" d="M4.38367 8.20844C4.38367 7.88008 4.64986 7.61389 4.97822 7.61389H5.27549C5.60385 7.61389 5.87004 7.88008 5.87004 8.20844V8.50572C5.87004 8.83408 5.60385 9.10027 5.27549 9.10027H4.97822C4.64986 9.10027 4.38367 8.83408 4.38367 8.50572V8.20844Z" fill="#5654D4"/>
<path id="Rectangle 10707_2" d="M4.38367 5.53297C4.38367 5.2046 4.64986 4.93842 4.97822 4.93842H5.27549C5.60385 4.93842 5.87004 5.2046 5.87004 5.53297V5.83024C5.87004 6.1586 5.60385 6.42479 5.27549 6.42479H4.97822C4.64986 6.42479 4.38367 6.1586 4.38367 5.83024V5.53297Z" fill="#5654D4"/>
<path id="Rectangle 10707_3" d="M4.38367 3.15479C4.38367 2.82643 4.64986 2.56024 4.97822 2.56024H7.95097C8.27933 2.56024 8.54552 2.82643 8.54552 3.15479V3.15479C8.54552 3.48315 8.27933 3.74934 7.95097 3.74934H4.97822C4.64986 3.74934 4.38367 3.48315 4.38367 3.15479V3.15479Z" fill="#5654D4"/>
<path id="Rectangle 10707_4" d="M7.05914 8.20844C7.05914 7.88008 7.32533 7.61389 7.65369 7.61389H7.95097C8.27933 7.61389 8.54552 7.88008 8.54552 8.20844V8.50572C8.54552 8.83408 8.27933 9.10027 7.95097 9.10027H7.65369C7.32533 9.10027 7.05914 8.83408 7.05914 8.50572V8.20844Z" fill="#5654D4"/>
<path id="Rectangle 10707_5" d="M7.05914 5.53297C7.05914 5.2046 7.32533 4.93842 7.65369 4.93842H7.95097C8.27933 4.93842 8.54552 5.2046 8.54552 5.53297V5.83024C8.54552 6.1586 8.27933 6.42479 7.95097 6.42479H7.65369C7.32533 6.42479 7.05914 6.1586 7.05914 5.83024V5.53297Z" fill="#5654D4"/>
</g>
</svg>
