<svg width="13" height="13" viewBox="0 0 13 13" fill="none" xmlns="http://www.w3.org/2000/svg">
<g id="settings-03">
<path id="Icon" d="M7.95283 5.10659H3.22095C2.53686 5.10659 1.9823 4.55203 1.9823 3.86794C1.9823 3.18385 2.53686 2.62929 3.22095 2.62929H7.95283M4.93003 10.5566H9.66191C10.346 10.5566 10.9006 10.0021 10.9006 9.31799C10.9006 8.6339 10.346 8.07934 9.66191 8.07934H4.93003M1.9823 9.31799C1.9823 10.2757 2.75869 11.0521 3.71641 11.0521C4.67413 11.0521 5.45051 10.2757 5.45051 9.31799C5.45051 8.36027 4.67413 7.58388 3.71641 7.58388C2.75869 7.58388 1.9823 8.36027 1.9823 9.31799ZM10.9006 3.86794C10.9006 4.82566 10.1242 5.60205 9.16645 5.60205C8.20873 5.60205 7.43235 4.82566 7.43235 3.86794C7.43235 2.91022 8.20873 2.13383 9.16645 2.13383C10.1242 2.13383 10.9006 2.91022 10.9006 3.86794Z" stroke="#344054" stroke-width="0.990917" stroke-linecap="round" stroke-linejoin="round"/>
</g>
</svg>
