<svg width="24" height="24" viewBox="0 0 24 24" fill="none" xmlns="http://www.w3.org/2000/svg">
<path d="M12.36 4C6.57999 4 2.64399 9.857 4.82399 15.21L5.75699 17.498C5.79774 17.5978 5.80515 17.7081 5.77812 17.8124C5.75109 17.9167 5.69106 18.0095 5.60699 18.077L3.63399 19.66C3.55322 19.7248 3.49456 19.8131 3.46611 19.9127C3.43767 20.0122 3.44085 20.1182 3.4752 20.2159C3.50956 20.3136 3.5734 20.3982 3.65792 20.458C3.74243 20.5179 3.84344 20.55 3.94699 20.55H11.767C12.9139 20.5504 14.0496 20.3248 15.1092 19.8861C16.1689 19.4475 17.1317 18.8043 17.9427 17.9934C18.7537 17.1825 19.397 16.2197 19.8358 15.1601C20.2745 14.1005 20.5003 12.9649 20.5 11.818C20.5 7.5 17 4 12.682 4H12.36Z" fill="#686868"/>
</svg>
