<svg width="16" height="16" viewBox="0 0 16 16" fill="none" xmlns="http://www.w3.org/2000/svg">
<path d="M7.5 0C8.1875 0 8.85156 0.0885417 9.49219 0.265625C10.1328 0.442708 10.7292 0.695312 11.2812 1.02344C11.8333 1.35156 12.3385 1.74219 12.7969 2.19531C13.2552 2.64844 13.6458 3.15365 13.9688 3.71094C14.2917 4.26823 14.5443 4.86719 14.7266 5.50781C14.9089 6.14844 15 6.8125 15 7.5C15 8.1875 14.9115 8.85156 14.7344 9.49219C14.5573 10.1328 14.3047 10.7292 13.9766 11.2812C13.6484 11.8333 13.2578 12.3385 12.8047 12.7969C12.3516 13.2552 11.8464 13.6458 11.2891 13.9688C10.7318 14.2917 10.1328 14.5443 9.49219 14.7266C8.85156 14.9089 8.1875 15 7.5 15C6.8125 15 6.14844 14.9115 5.50781 14.7344C4.86719 14.5573 4.27083 14.3047 3.71875 13.9766C3.16667 13.6484 2.66146 13.2578 2.20312 12.8047C1.74479 12.3516 1.35417 11.8464 1.03125 11.2891C0.708333 10.7318 0.455729 10.1354 0.273438 9.5C0.0911458 8.86458 0 8.19792 0 7.5C0 6.8125 0.0885417 6.14844 0.265625 5.50781C0.442708 4.86719 0.695312 4.27083 1.02344 3.71875C1.35156 3.16667 1.74219 2.66146 2.19531 2.20312C2.64844 1.74479 3.15365 1.35417 3.71094 1.03125C4.26823 0.708333 4.86458 0.455729 5.5 0.273438C6.13542 0.0911458 6.80208 0 7.5 0ZM7.5 14C8.09896 14 8.67448 13.9245 9.22656 13.7734C9.77865 13.6224 10.2969 13.4036 10.7812 13.1172C11.2656 12.8307 11.7031 12.4922 12.0938 12.1016C12.4844 11.7109 12.8229 11.2734 13.1094 10.7891C13.3958 10.3047 13.6146 9.78646 13.7656 9.23438C13.9167 8.68229 13.9948 8.10417 14 7.5C14 6.90104 13.9245 6.32552 13.7734 5.77344C13.6224 5.22135 13.4036 4.70312 13.1172 4.21875C12.8307 3.73438 12.4922 3.29688 12.1016 2.90625C11.7109 2.51562 11.2734 2.17708 10.7891 1.89062C10.3047 1.60417 9.78646 1.38542 9.23438 1.23438C8.68229 1.08333 8.10417 1.00521 7.5 1C6.90104 1 6.32552 1.07552 5.77344 1.22656C5.22135 1.3776 4.70312 1.59635 4.21875 1.88281C3.73438 2.16927 3.29688 2.50781 2.90625 2.89844C2.51562 3.28906 2.17708 3.72656 1.89062 4.21094C1.60417 4.69531 1.38542 5.21354 1.23438 5.76562C1.08333 6.31771 1.00521 6.89583 1 7.5C1 8.09896 1.07552 8.67448 1.22656 9.22656C1.3776 9.77865 1.59635 10.2969 1.88281 10.7812C2.16927 11.2656 2.50781 11.7031 2.89844 12.0938C3.28906 12.4844 3.72656 12.8229 4.21094 13.1094C4.69531 13.3958 5.21354 13.6146 5.76562 13.7656C6.31771 13.9167 6.89583 13.9948 7.5 14ZM3 7H12V8H3V7Z" fill="#757575"/>
</svg>
