<svg width="19" height="19" viewBox="0 0 19 19" fill="none" xmlns="http://www.w3.org/2000/svg">
<path d="M17.0278 16.4492C16.9736 16.6145 16.8444 16.7979 16.6326 16.8596C16.4796 16.9043 11.419 18.3701 11.2632 18.411C10.8176 18.5297 10.5079 18.4423 10.3046 18.2628C9.99495 17.9901 6.4163 15.5553 1.9019 15.3254C1.4193 15.3016 1.65585 13.4719 3.03525 13.4719C3.9805 13.4719 6.74405 14.1588 7.0775 13.8244C7.33495 13.566 7.4518 12.0393 6.37735 9.37555L4.2161 4.0204C4.12908 3.77876 4.13909 3.51279 4.24403 3.27838C4.34898 3.04396 4.54069 2.85934 4.77889 2.7633C5.01709 2.66726 5.28324 2.66727 5.52143 2.76333C5.75963 2.85939 5.95132 3.04402 6.05625 3.27845L7.94295 7.9515C8.1263 8.4075 8.3524 8.5804 8.59845 8.4854C8.8179 8.4018 8.8635 8.2555 8.7305 7.81185L6.7868 2.08525C6.74481 1.96199 6.72752 1.83167 6.73593 1.70173C6.74434 1.57179 6.77827 1.44478 6.8358 1.32797C6.89332 1.21115 6.97331 1.10682 7.07118 1.02094C7.16906 0.935053 7.2829 0.869303 7.4062 0.827446C7.52949 0.784918 7.65998 0.767221 7.79015 0.775375C7.92031 0.783529 8.04757 0.817373 8.16459 0.874956C8.28161 0.932538 8.38607 1.01272 8.47195 1.11087C8.55783 1.20903 8.62342 1.32321 8.66495 1.44685L10.5136 6.89225C10.677 7.37105 10.8499 7.62185 11.1235 7.50595C11.2879 7.4366 11.2765 7.18485 11.2328 6.9654L9.9351 1.76795C9.89942 1.64016 9.88972 1.50651 9.90657 1.3749C9.92342 1.2433 9.96648 1.11641 10.0332 1.00173C10.0999 0.887048 10.189 0.786907 10.295 0.707221C10.4011 0.627536 10.5221 0.569924 10.6508 0.537789C10.7796 0.505655 10.9134 0.49965 11.0445 0.52013C11.1756 0.54061 11.3013 0.587159 11.4141 0.657027C11.5268 0.726894 11.6245 0.818662 11.7012 0.926907C11.7779 1.03515 11.8322 1.15768 11.8607 1.28725L13.0577 6.07715C13.2325 6.7811 13.3931 7.03475 13.6714 6.9654C13.9555 6.89605 13.9422 6.66235 13.9032 6.4695L13.0748 2.3579C13.041 2.12916 13.0963 1.89616 13.2292 1.70696C13.3621 1.51776 13.5626 1.38681 13.7893 1.34111C14.0159 1.29541 14.2515 1.33845 14.4473 1.46136C14.6432 1.58427 14.7844 1.77766 14.8418 2.00165L15.7424 6.4771L15.7434 6.47805V6.479L16.283 9.16275C16.4008 9.6691 16.5357 10.146 16.7105 10.6134C17.7412 13.3579 17.2035 15.8992 17.0278 16.4492Z" fill="#686868"/>
</svg>
