<svg xmlns="http://www.w3.org/2000/svg" xmlns:xlink="http://www.w3.org/1999/xlink" viewBox="0 0 281 250" preserveAspectRatio="xMidYMid" style="display: block; shape-rendering: auto; background: rgb(255, 255, 255);" width="281" height="250"><style type="text/css">
  .ld-text text {
    text-anchor: middle;
    dominant-baseline: middle;
    font-size: 37px;
    opacity: 0;
    user-select: none;
    pointer-events: none;
  }
</style>
<g style="transform-origin:140.5px 125px;transform:scale(1)" class="ld-text">
<g transform="translate(140.5,125)">
  <g transform="scale(0.4625) translate(0,0)"><g class="path" style="opacity: 1; transform-origin: -261.44px 14.86px; transform: matrix3d(1, 0, 0, 0, 0, 1, 0, 0, 0, 0, 1, 0, 0, 0, 0, 1); animation: 1s linear -0.609231s infinite normal forwards running animate-zgty9jcap6l; transform-box: view-box;"><path d="M28.88 50.79L34.56 50.79L28.72 33.51L12.88 33.51L6.72 50.79L12.72 50.79L12.72 52.31L0.48 52.31L0.48 50.79L4.24 50.79L24.64-4.17L31.20-4.17L51.36 50.79L55.04 50.79L55.04 52.31L28.88 52.31L28.88 50.79 zM28.08 31.75L21.12 10.79L13.60 31.75L28.08 31.75" style="fill: rgb(52, 137, 138);" transform="translate(-289.200,-26.154)"></path></g><g class="path" style="opacity: 1; transform-origin: -197.96px 18.38px; transform: matrix3d(1, 0, 0, 0, 0, 1, 0, 0, 0, 0, 1, 0, 0, 0, 0, 1); animation: 1s linear -0.558462s infinite normal forwards running animate-zgty9jcap6l; transform-box: view-box;"><path d="M56.32 15.67L56.32 14.23L75.60 14.23L75.60 21.59Q78.24 13.43 87.24 13.43Q96.24 13.43 98.16 22.07L98.16 22.07Q100.96 13.43 109.92 13.43L109.92 13.43Q121.68 13.43 121.68 26.79L121.68 26.79L121.68 50.87L126.16 50.87L126.16 52.31L104 52.31L104 50.87L106.80 50.87L106.80 24.87Q106.80 18.79 105.76 17.75L105.76 17.75Q105.28 17.27 104.48 17.27L104.48 17.27Q102.16 17.27 100.40 20.39Q98.64 23.51 98.64 28.31L98.64 28.31L98.64 50.87L101.52 50.87L101.52 52.31L80.96 52.31L80.96 50.87L83.76 50.87L83.76 24.87Q83.76 18.79 82.72 17.75L82.72 17.75Q82.24 17.27 81.44 17.27L81.44 17.27Q79.20 17.27 77.40 20.67Q75.60 24.07 75.60 28.79L75.60 28.79L75.60 50.87L78.48 50.87L78.48 52.31L56.32 52.31L56.32 50.87L60.72 50.87L60.72 15.67L56.32 15.67" style="fill: rgb(82, 145, 52);" transform="translate(-289.200,-26.154)"></path></g><g class="path" style="opacity: 1; transform-origin: -139.88px 19.02px; transform: matrix3d(1, 0, 0, 0, 0, 1, 0, 0, 0, 0, 1, 0, 0, 0, 0, 1); animation: 1s linear -0.507692s infinite normal forwards running animate-zgty9jcap6l; transform-box: view-box;"><path d="M146.56 33.51L146.56 33.51L148.88 33.51L148.88 27.35Q148.88 19.75 148.04 17.15Q147.20 14.55 144.80 14.55L144.80 14.55Q143.36 14.55 142.20 15.31Q141.04 16.07 141.04 17.39Q141.04 18.71 141.52 20.07L141.52 20.07L143.52 20.07Q144.16 21.75 144.16 24.11Q144.16 26.47 142.16 28.19Q140.16 29.91 137.12 29.91L137.12 29.91Q130.24 29.91 130.24 23.27L130.24 23.27Q130.24 13.43 146.96 13.43L146.96 13.43Q156.48 13.43 160.12 16.67Q163.76 19.91 163.76 28.55L163.76 28.55L163.76 44.79Q163.76 48.95 166.08 48.95L166.08 48.95Q168.80 48.95 169.28 40.71L169.28 40.71L170.48 40.79Q170.16 47.83 167.84 50.47Q165.52 53.11 160.24 53.11L160.24 53.11Q150.64 53.11 149.20 47.19L149.20 47.19Q148.16 50.23 146.08 51.67Q144 53.11 140 53.11L140 53.11Q128.16 53.11 128.16 43.43L128.16 43.43Q128.16 37.75 132.68 35.63Q137.20 33.51 146.56 33.51 zM143.36 43.35Q143.36 47.51 143.80 48.71Q144.24 49.91 145.48 49.91Q146.72 49.91 147.80 47.87Q148.88 45.83 148.88 42.23L148.88 42.23L148.88 34.79L148.32 34.79Q143.36 34.79 143.36 42.07L143.36 42.07L143.36 43.35" style="fill: rgb(151, 190, 17);" transform="translate(-289.200,-26.154)"></path></g><g class="path" style="opacity: 1; transform-origin: -93.72px 18.38px; transform: matrix3d(1, 0, 0, 0, 0, 1, 0, 0, 0, 0, 1, 0, 0, 0, 0, 1); animation: 1s linear -0.456923s infinite normal forwards running animate-zgty9jcap6l; transform-box: view-box;"><path d="M171.44 15.67L171.44 14.23L190.72 14.23L190.72 21.59Q192 17.91 194.64 15.67Q197.28 13.43 202.64 13.43L202.64 13.43Q215.04 13.43 215.04 26.79L215.04 26.79L215.04 50.87L219.52 50.87L219.52 52.31L196.88 52.31L196.88 50.87L200.16 50.87L200.16 24.87Q200.16 20.07 199.52 18.67Q198.88 17.27 197.20 17.27L197.20 17.27Q194.64 17.27 192.68 20.63Q190.72 23.99 190.72 28.79L190.72 28.79L190.72 50.87L194.16 50.87L194.16 52.31L171.44 52.31L171.44 50.87L175.84 50.87L175.84 15.67L171.44 15.67" style="fill: rgb(152, 59, 141);" transform="translate(-289.200,-26.154)"></path></g><g class="path" style="opacity: 1; transform-origin: -63.08px -16.9px; transform: matrix3d(1, 0, 0, 0, 0, 1, 0, 0, 0, 0, 1, 0, 0, 0, 0, 1); animation: 1s linear -0.406154s infinite normal forwards running animate-zgty9jcap6l; transform-box: view-box;"><path d="M226.16 13.83L224.48 13.83L222.16-7.45Q225.36-9.05 227.36-9.05L227.36-9.05Q230.08-9.05 230.08-6.09L230.08-6.09Q230.08-4.25 229.36-0.81L229.36-0.81L226.16 13.83" style="fill: rgb(175, 73, 94);" transform="translate(-289.200,-26.154)"></path></g><g class="path" style="opacity: 1; transform-origin: -39.88px 18.99px; transform: matrix3d(1, 0, 0, 0, 0, 1, 0, 0, 0, 0, 1, 0, 0, 0, 0, 1); animation: 1s linear -0.355385s infinite normal forwards running animate-zgty9jcap6l; transform-box: view-box;"><path d="M235.04 53.11L234.08 53.11L234.08 38.79L235.04 38.79Q237.12 45.75 240.64 48.55Q244.16 51.35 249.44 51.35L249.44 51.35Q257.60 51.35 257.60 46.15L257.60 46.15Q257.60 43.91 255.60 42.79L255.60 42.79Q252.48 41.03 247.60 40.07L247.60 40.07Q242.16 38.63 238.48 36.23L238.48 36.23Q234.08 33.35 234.08 27.11Q234.08 20.87 237.92 17.15Q241.76 13.43 248.16 13.43L248.16 13.43Q252.08 13.43 256.24 15.27L256.24 15.27Q257.76 15.91 258.56 15.91Q259.36 15.91 259.92 15.35Q260.48 14.79 261.28 13.27L261.28 13.27L262.16 13.27L262.16 25.51L261.20 25.51Q257.12 15.11 248.56 15.11L248.56 15.11Q244.80 15.11 242.96 16.43Q241.12 17.75 241.12 19.75L241.12 19.75Q241.12 20.95 241.68 21.63Q242.24 22.31 242.56 22.63Q242.88 22.95 243.60 23.31Q244.32 23.67 244.80 23.87Q245.28 24.07 246.28 24.39Q247.28 24.71 247.76 24.79L247.76 24.79Q253.20 26.15 255.60 27.15Q258 28.15 260.16 29.59L260.16 29.59Q264.56 32.63 264.56 39.39Q264.56 46.15 260.56 49.63Q256.56 53.11 249.60 53.11L249.60 53.11Q244.64 53.11 240 50.79L240 50.79Q239.04 50.15 238.48 50.15L238.48 50.15Q236.72 50.15 235.04 53.11L235.04 53.11" style="fill: rgb(52, 137, 138);" transform="translate(-289.200,-26.154)"></path></g><g class="path" style="opacity: 1; transform-origin: 24.96px 14.96px; transform: matrix3d(1, 0, 0, 0, 0, 1, 0, 0, 0, 0, 1, 0, 0, 0, 0, 1); animation: 1s linear -0.304615s infinite normal forwards running animate-zgty9jcap6l; transform-box: view-box;"><path d="M314.80 37.51L324.40-3.69L345.76-3.69L345.76-2.17L341.36-2.17L341.36 50.79L345.76 50.79L345.76 52.31L321.36 52.31L321.36 50.79L325.76 50.79L325.76 0.79L325.44 0.79L313.44 52.31L303.44 52.31L289.36 0.55L289.04 0.55L289.04 50.79L293.44 50.79L293.44 52.31L282.56 52.31L282.56 50.79L286.96 50.79L286.96-2.17L282.56-2.17L282.56-3.69L304.16-3.69L314.80 37.51" style="fill: rgb(82, 145, 52);" transform="translate(-289.200,-26.154)"></path></g><g class="path" style="opacity: 1; transform-origin: 78.77px 19.02px; transform: matrix3d(1, 0, 0, 0, 0, 1, 0, 0, 0, 0, 1, 0, 0, 0, 0, 1); animation: 1s linear -0.253846s infinite normal forwards running animate-zgty9jcap6l; transform-box: view-box;"><path d="M369.60 53.11Q359.28 53.11 354.12 47.79Q348.96 42.47 348.96 32.99Q348.96 23.51 354.76 18.47Q360.56 13.43 369.52 13.43L369.52 13.43Q387.68 13.43 386.96 31.67L386.96 31.67L364.40 31.67L364.40 34.79Q364.40 42.63 366.40 46.63Q368.40 50.63 373.36 50.63L373.36 50.63Q382.64 50.63 385.52 40.71L385.52 40.71L386.96 40.95Q385.44 46.71 381.48 49.91Q377.52 53.11 369.60 53.11L369.60 53.11 zM364.48 26.15L364.48 30.07L372.72 30.07L372.72 26.15Q372.72 19.67 371.96 17.31Q371.20 14.95 368.92 14.95Q366.64 14.95 365.56 17.47Q364.48 19.99 364.48 26.15L364.48 26.15" style="fill: rgb(151, 190, 17);" transform="translate(-289.200,-26.154)"></path></g><g class="path" style="opacity: 1; transform-origin: 123.52px 14.8px; transform: matrix3d(1, 0, 0, 0, 0, 1, 0, 0, 0, 0, 1, 0, 0, 0, 0, 1); animation: 1s linear -0.203077s infinite normal forwards running animate-zgty9jcap6l; transform-box: view-box;"><path d="M406.08 35.75Q406.08 44.15 406.96 46.91Q407.84 49.67 410.20 49.67Q412.56 49.67 414.28 47.59Q416 45.51 416 41.43L416 41.43L416 23.99Q416 20.55 414.64 18.15Q413.28 15.75 410.64 15.75Q408 15.75 407.04 19.27Q406.08 22.79 406.08 31.59L406.08 31.59L406.08 35.75 zM434.80 52.31L417.04 52.31L416.16 46.71Q413.44 53.11 405.12 53.11L405.12 53.11Q398.24 53.11 394.44 48.15Q390.64 43.19 390.64 33.35L390.64 33.35Q390.64 13.43 406.48 13.43L406.48 13.43Q413.52 13.43 415.76 17.35L415.76 17.35L415.76-6.25L410.88-6.25L410.88-7.69L430.88-7.69L430.88 50.87L434.80 50.87L434.80 52.31" style="fill: rgb(152, 59, 141);" transform="translate(-289.200,-26.154)"></path></g><g class="path" style="opacity: 1; transform-origin: 159.64px -20.42px; transform: matrix3d(1, 0, 0, 0, 0, 1, 0, 0, 0, 0, 1, 0, 0, 0, 0, 1); animation: 1s linear -0.152308s infinite normal forwards running animate-zgty9jcap6l; transform-box: view-box;"><path d="M448.64 8.71Q444.40 8.71 442.60 6.55Q440.80 4.39 440.80 1.19Q440.80-2.01 442.76-4.09Q444.72-6.17 448.72-6.17Q452.72-6.17 454.80-4.29Q456.88-2.41 456.88 1.07Q456.88 4.55 454.88 6.63Q452.88 8.71 448.64 8.71" style="fill: rgb(175, 73, 94);" transform="translate(-289.200,-26.154)"></path></g><g class="path" style="opacity: 1; transform-origin: 159.4px 18.54px; transform: matrix3d(1, 0, 0, 0, 0, 1, 0, 0, 0, 0, 1, 0, 0, 0, 0, 1); animation: 1s linear -0.101538s infinite normal forwards running animate-zgty9jcap6l; transform-box: view-box;"><path d="M436.56 15.67L436.56 14.23L456.16 14.23L456.16 50.87L460.64 50.87L460.64 52.31L436.88 52.31L436.88 50.87L441.28 50.87L441.28 15.67L436.56 15.67" style="fill: rgb(52, 137, 138);" transform="translate(-289.200,-26.154)"></path></g><g class="path" style="opacity: 1; transform-origin: 194.6px 19.18px; transform: matrix3d(1, 0, 0, 0, 0, 1, 0, 0, 0, 0, 1, 0, 0, 0, 0, 1); animation: 1s linear -0.0507692s infinite normal forwards running animate-zgty9jcap6l; transform-box: view-box;"><path d="M507.44 50.87L507.44 52.31L489.20 52.31L488.32 46.47Q487.04 49.67 484.52 51.39Q482 53.11 477.04 53.11L477.04 53.11Q464.64 53.11 464.64 39.75L464.64 39.75L464.64 15.67L460.16 15.67L460.16 14.23L479.52 14.23L479.52 41.67Q479.52 46.47 480.20 47.99Q480.88 49.51 482.92 49.51Q484.96 49.51 486.56 47.03Q488.16 44.55 488.16 40.15L488.16 40.15L488.16 15.67L484.48 15.67L484.48 14.23L503.04 14.23L503.04 50.87L507.44 50.87" style="fill: rgb(82, 145, 52);" transform="translate(-289.200,-26.154)"></path></g><g class="path" style="opacity: 1; transform-origin: 254.76px 18.38px; transform: matrix3d(1, 0, 0, 0, 0, 1, 0, 0, 0, 0, 1, 0, 0, 0, 0, 1); animation: 1s linear 0s infinite normal forwards running animate-zgty9jcap6l; transform-box: view-box;"><path d="M509.04 15.67L509.04 14.23L528.32 14.23L528.32 21.59Q530.96 13.43 539.96 13.43Q548.96 13.43 550.88 22.07L550.88 22.07Q553.68 13.43 562.64 13.43L562.64 13.43Q574.40 13.43 574.40 26.79L574.40 26.79L574.40 50.87L578.88 50.87L578.88 52.31L556.72 52.31L556.72 50.87L559.52 50.87L559.52 24.87Q559.52 18.79 558.48 17.75L558.48 17.75Q558 17.27 557.20 17.27L557.20 17.27Q554.88 17.27 553.12 20.39Q551.36 23.51 551.36 28.31L551.36 28.31L551.36 50.87L554.24 50.87L554.24 52.31L533.68 52.31L533.68 50.87L536.48 50.87L536.48 24.87Q536.48 18.79 535.44 17.75L535.44 17.75Q534.96 17.27 534.16 17.27L534.16 17.27Q531.92 17.27 530.12 20.67Q528.32 24.07 528.32 28.79L528.32 28.79L528.32 50.87L531.20 50.87L531.20 52.31L509.04 52.31L509.04 50.87L513.44 50.87L513.44 15.67L509.04 15.67" style="fill: rgb(151, 190, 17);" transform="translate(-289.200,-26.154)"></path></g></g><text dy="0.35em" fill="#34898a" font-family="Abril Fatface" font-size="37">Aman's Medium</text>
</g>
</g><style type="text/css">@keyframes animate-zgty9jcap6l { 0.00% {transform: translate(0.00px,0.00px) rotate(0.00deg) scale(1.00, 1.00) skew(0deg, 0.00deg) ;opacity: 1.00;}2.00% {animation-timing-function: cubic-bezier(0.20,0.39,0.50,0.97);transform: translate(0.00px,-1.08px) rotate(0.00deg) ;}36.00% {animation-timing-function: cubic-bezier(0.50,0.03,0.80,0.61);transform: translate(0.00px,-10.00px) rotate(0.00deg) ;}72.00% {transform: translate(0.00px,-0.12px) rotate(0.00deg) ;}74.00% {animation-timing-function: cubic-bezier(0.24,0.43,0.48,0.91);transform: translate(0.00px,0.00px) rotate(0.00deg) scale(1.00, 0.95) ;}86.00% {animation-timing-function: cubic-bezier(0.53,0.08,0.77,0.57);transform: translate(0.00px,0.00px) rotate(0.00deg) scale(1.00, 0.80) ;}100.00% {animation-timing-function: cubic-bezier(0.53,0.08,0.77,0.57);transform: translate(0.00px,0.00px) rotate(0.00deg) scale(1.00, 1.00) ;} }</style><!-- [ldio] generated by https://loading.io --></svg>