<svg width="180" height="20" viewBox="0 0 180 20" fill="none" xmlns="http://www.w3.org/2000/svg">
<path d="M9.832 1.96L15.664 16.984C15.888 17.56 16.136 17.96 16.408 18.184C16.696 18.392 16.952 18.504 17.176 18.52V19C16.696 18.968 16.128 18.952 15.472 18.952C14.832 18.936 14.184 18.928 13.528 18.928C12.792 18.928 12.096 18.936 11.44 18.952C10.784 18.952 10.264 18.968 9.88 19V18.52C10.696 18.488 11.208 18.352 11.416 18.112C11.64 17.856 11.592 17.32 11.272 16.504L7.192 5.344L7.624 4.72L3.976 14.224C3.624 15.104 3.408 15.824 3.328 16.384C3.264 16.944 3.304 17.376 3.448 17.68C3.608 17.984 3.856 18.2 4.192 18.328C4.544 18.44 4.96 18.504 5.44 18.52V19C4.912 18.968 4.408 18.952 3.928 18.952C3.448 18.936 2.96 18.928 2.464 18.928C2.112 18.928 1.776 18.936 1.456 18.952C1.152 18.952 0.88 18.968 0.64 19V18.52C0.976 18.456 1.32 18.24 1.672 17.872C2.024 17.504 2.368 16.88 2.704 16L8.176 1.96C8.432 1.976 8.704 1.984 8.992 1.984C9.296 1.984 9.576 1.976 9.832 1.96ZM11.512 12.088V12.568H4.36L4.6 12.088H11.512ZM26.2958 6.256C26.9678 6.256 27.5118 6.344 27.9278 6.52C28.3438 6.68 28.6798 6.904 28.9358 7.192C29.1918 7.496 29.3758 7.896 29.4878 8.392C29.5998 8.872 29.6558 9.512 29.6558 10.312V16.768C29.6558 17.44 29.7598 17.896 29.9678 18.136C30.1758 18.376 30.5358 18.496 31.0478 18.496V19C30.7598 18.984 30.3198 18.968 29.7278 18.952C29.1518 18.92 28.5838 18.904 28.0238 18.904C27.4478 18.904 26.8798 18.92 26.3198 18.952C25.7598 18.968 25.3358 18.984 25.0478 19V18.496C25.4798 18.496 25.7758 18.376 25.9358 18.136C26.1118 17.896 26.1998 17.44 26.1998 16.768V9.304C26.1998 8.904 26.1678 8.56 26.1038 8.272C26.0398 7.968 25.9118 7.736 25.7198 7.576C25.5438 7.4 25.2718 7.312 24.9038 7.312C24.4878 7.312 24.1038 7.432 23.7518 7.672C23.3998 7.912 23.1118 8.248 22.8878 8.68C22.6798 9.096 22.5758 9.568 22.5758 10.096V16.768C22.5758 17.44 22.6638 17.896 22.8398 18.136C23.0158 18.376 23.3118 18.496 23.7278 18.496V19C23.4718 18.984 23.0718 18.968 22.5278 18.952C21.9998 18.92 21.4558 18.904 20.8958 18.904C20.2878 18.904 19.6638 18.92 19.0238 18.952C18.3838 18.968 17.9038 18.984 17.5838 19V18.496C18.1438 18.496 18.5358 18.376 18.7598 18.136C18.9998 17.896 19.1198 17.44 19.1198 16.768V9.208C19.1198 8.488 19.0078 7.96 18.7838 7.624C18.5758 7.272 18.1758 7.096 17.5838 7.096V6.592C18.0958 6.64 18.5918 6.664 19.0718 6.664C19.7438 6.664 20.3678 6.64 20.9438 6.592C21.5358 6.528 22.0798 6.44 22.5758 6.328V8.488C22.9598 7.688 23.4798 7.12 24.1358 6.784C24.7918 6.432 25.5118 6.256 26.2958 6.256ZM33.5198 6.256C34.1918 6.256 34.7358 6.344 35.1518 6.52C35.5678 6.68 35.9038 6.904 36.1598 7.192C36.4158 7.496 36.5998 7.896 36.7118 8.392C36.8238 8.872 36.8798 9.512 36.8798 10.312V16.768C36.8798 17.44 36.9918 17.896 37.2158 18.136C37.4558 18.376 37.8558 18.496 38.4158 18.496V19C38.1118 18.984 37.6558 18.968 37.0478 18.952C36.4398 18.92 35.8398 18.904 35.2478 18.904C34.6718 18.904 34.1038 18.92 33.5438 18.952C32.9838 18.968 32.5598 18.984 32.2718 19V18.496C32.7038 18.496 32.9998 18.376 33.1598 18.136C33.3358 17.896 33.4238 17.44 33.4238 16.768V9.304C33.4238 8.904 33.3838 8.56 33.3038 8.272C33.2398 7.968 33.1038 7.736 32.8958 7.576C32.7038 7.4 32.3998 7.312 31.9838 7.312C31.5678 7.312 31.1838 7.44 30.8318 7.696C30.4798 7.952 30.1918 8.296 29.9678 8.728C29.7598 9.16 29.6478 9.64 29.6318 10.168L29.5118 8.704C29.9438 7.744 30.5118 7.096 31.2158 6.76C31.9358 6.424 32.7038 6.256 33.5198 6.256ZM42.6224 19.168C41.9024 19.168 41.3024 19.032 40.8224 18.76C40.3424 18.488 39.9904 18.128 39.7664 17.68C39.5424 17.216 39.4304 16.712 39.4304 16.168C39.4304 15.48 39.5824 14.92 39.8864 14.488C40.2064 14.056 40.6144 13.704 41.1104 13.432C41.6064 13.16 42.1264 12.936 42.6704 12.76C43.2304 12.584 43.7584 12.416 44.2544 12.256C44.7664 12.08 45.1744 11.88 45.4784 11.656C45.7984 11.416 45.9584 11.112 45.9584 10.744V8.872C45.9584 8.456 45.8864 8.088 45.7424 7.768C45.6144 7.432 45.4064 7.176 45.1184 7C44.8464 6.824 44.4864 6.736 44.0384 6.736C43.7184 6.736 43.3984 6.784 43.0784 6.88C42.7584 6.96 42.4944 7.104 42.2864 7.312C42.7344 7.472 43.0784 7.72 43.3184 8.056C43.5744 8.376 43.7024 8.744 43.7024 9.16C43.7024 9.704 43.5104 10.136 43.1264 10.456C42.7584 10.776 42.3184 10.936 41.8064 10.936C41.2304 10.936 40.7904 10.76 40.4864 10.408C40.1984 10.04 40.0544 9.6 40.0544 9.088C40.0544 8.624 40.1664 8.24 40.3904 7.936C40.6304 7.632 40.9584 7.344 41.3744 7.072C41.8224 6.816 42.3584 6.616 42.9824 6.472C43.6224 6.328 44.3104 6.256 45.0464 6.256C45.7824 6.256 46.4464 6.336 47.0384 6.496C47.6304 6.64 48.1264 6.912 48.5264 7.312C48.8944 7.68 49.1344 8.136 49.2464 8.68C49.3584 9.208 49.4144 9.88 49.4144 10.696V17.224C49.4144 17.624 49.4544 17.904 49.5344 18.064C49.6144 18.208 49.7504 18.28 49.9424 18.28C50.0864 18.28 50.2224 18.24 50.3504 18.16C50.4944 18.08 50.6464 17.984 50.8064 17.872L51.0464 18.28C50.7104 18.568 50.3184 18.792 49.8704 18.952C49.4384 19.096 48.9504 19.168 48.4064 19.168C47.8144 19.168 47.3424 19.088 46.9904 18.928C46.6384 18.752 46.3824 18.52 46.2224 18.232C46.0784 17.944 46.0064 17.608 46.0064 17.224C45.6224 17.832 45.1584 18.312 44.6144 18.664C44.0704 19 43.4064 19.168 42.6224 19.168ZM44.3264 17.632C44.6464 17.632 44.9344 17.56 45.1904 17.416C45.4624 17.256 45.7184 17 45.9584 16.648V11.728C45.8144 11.968 45.6144 12.184 45.3584 12.376C45.1024 12.568 44.8304 12.768 44.5424 12.976C44.2544 13.168 43.9744 13.384 43.7024 13.624C43.4464 13.864 43.2384 14.16 43.0784 14.512C42.9184 14.864 42.8384 15.288 42.8384 15.784C42.8384 16.408 42.9744 16.872 43.2464 17.176C43.5184 17.48 43.8784 17.632 44.3264 17.632ZM60.6603 6.256C61.3323 6.256 61.8763 6.344 62.2923 6.52C62.7243 6.68 63.0603 6.904 63.3003 7.192C63.5563 7.496 63.7403 7.888 63.8523 8.368C63.9803 8.848 64.0443 9.496 64.0443 10.312V16.768C64.0443 17.44 64.1562 17.896 64.3802 18.136C64.6203 18.376 65.0203 18.496 65.5803 18.496V19C65.2763 18.984 64.8203 18.968 64.2123 18.952C63.6043 18.92 63.0043 18.904 62.4123 18.904C61.8043 18.904 61.2043 18.92 60.6123 18.952C60.0363 18.968 59.5963 18.984 59.2923 19V18.496C59.7723 18.496 60.1083 18.376 60.3003 18.136C60.4923 17.896 60.5883 17.44 60.5883 16.768V9.304C60.5883 8.904 60.5483 8.56 60.4683 8.272C60.3883 7.968 60.2443 7.736 60.0363 7.576C59.8283 7.4 59.5163 7.312 59.1003 7.312C58.6683 7.312 58.2683 7.432 57.9003 7.672C57.5483 7.912 57.2603 8.248 57.0363 8.68C56.8283 9.096 56.7243 9.568 56.7243 10.096V16.768C56.7243 17.44 56.8203 17.896 57.0123 18.136C57.2203 18.376 57.5563 18.496 58.0203 18.496V19C57.7323 18.984 57.3083 18.968 56.7483 18.952C56.2043 18.92 55.6363 18.904 55.0443 18.904C54.4363 18.904 53.8123 18.92 53.1723 18.952C52.5323 18.968 52.0523 18.984 51.7323 19V18.496C52.2923 18.496 52.6843 18.376 52.9083 18.136C53.1483 17.896 53.2683 17.44 53.2683 16.768V9.208C53.2683 8.488 53.1563 7.96 52.9323 7.624C52.7243 7.272 52.3243 7.096 51.7323 7.096V6.592C52.2443 6.64 52.7403 6.664 53.2203 6.664C53.8923 6.664 54.5163 6.64 55.0923 6.592C55.6843 6.528 56.2283 6.44 56.7243 6.328V8.488C57.1243 7.672 57.6683 7.096 58.3563 6.76C59.0443 6.424 59.8123 6.256 60.6603 6.256ZM68.1685 1.672C68.5685 1.672 68.9125 1.744 69.2005 1.888C69.4885 2.032 69.7125 2.24 69.8725 2.512C70.0485 2.736 70.1765 3.032 70.2565 3.4C70.3525 3.768 70.4005 4.136 70.4005 4.504C70.4005 5.304 70.1925 6.048 69.7765 6.736C69.3765 7.408 68.7445 7.944 67.8805 8.344L67.6645 7.912C68.1125 7.72 68.5125 7.424 68.8645 7.024C69.2165 6.624 69.4245 6.216 69.4885 5.8C69.5685 5.448 69.5685 5.112 69.4885 4.792C69.1365 5.176 68.6725 5.368 68.0965 5.368C67.5365 5.368 67.0805 5.208 66.7285 4.888C66.3765 4.552 66.2005 4.096 66.2005 3.52C66.2005 2.96 66.3845 2.512 66.7525 2.176C67.1365 1.84 67.6085 1.672 68.1685 1.672ZM76.453 6.256C77.125 6.256 77.709 6.344 78.205 6.52C78.717 6.68 79.085 6.84 79.309 7C79.853 7.368 80.189 7.128 80.317 6.28H80.821C80.789 6.728 80.765 7.28 80.749 7.936C80.733 8.576 80.725 9.432 80.725 10.504H80.221C80.141 9.912 79.989 9.328 79.765 8.752C79.541 8.176 79.213 7.704 78.781 7.336C78.365 6.968 77.821 6.784 77.149 6.784C76.685 6.784 76.293 6.92 75.973 7.192C75.653 7.448 75.493 7.824 75.493 8.32C75.493 8.8 75.637 9.224 75.925 9.592C76.213 9.944 76.581 10.288 77.029 10.624C77.493 10.944 77.973 11.288 78.469 11.656C78.997 12.056 79.477 12.456 79.909 12.856C80.341 13.24 80.685 13.664 80.941 14.128C81.197 14.592 81.325 15.144 81.325 15.784C81.325 16.504 81.117 17.136 80.701 17.68C80.285 18.208 79.733 18.616 79.045 18.904C78.373 19.192 77.621 19.336 76.789 19.336C76.309 19.336 75.877 19.288 75.493 19.192C75.125 19.096 74.805 18.976 74.533 18.832C74.325 18.736 74.125 18.648 73.933 18.568C73.757 18.472 73.589 18.392 73.429 18.328C73.269 18.28 73.125 18.336 72.997 18.496C72.885 18.656 72.797 18.88 72.733 19.168H72.229C72.261 18.656 72.285 18.032 72.301 17.296C72.317 16.56 72.325 15.584 72.325 14.368H72.829C72.925 15.232 73.101 16 73.357 16.672C73.613 17.328 73.957 17.848 74.389 18.232C74.837 18.6 75.397 18.784 76.069 18.784C76.341 18.784 76.605 18.728 76.861 18.616C77.117 18.504 77.325 18.32 77.485 18.064C77.661 17.808 77.749 17.48 77.749 17.08C77.749 16.376 77.517 15.792 77.053 15.328C76.605 14.864 76.029 14.36 75.325 13.816C74.813 13.4 74.325 12.992 73.861 12.592C73.413 12.176 73.045 11.728 72.757 11.248C72.469 10.752 72.325 10.192 72.325 9.568C72.325 8.848 72.517 8.24 72.901 7.744C73.285 7.248 73.789 6.88 74.413 6.64C75.053 6.384 75.733 6.256 76.453 6.256ZM109.269 2.008V2.488C108.757 2.504 108.373 2.568 108.117 2.68C107.861 2.776 107.685 2.968 107.589 3.256C107.509 3.528 107.469 3.96 107.469 4.552V16.456C107.469 17.032 107.509 17.464 107.589 17.752C107.685 18.04 107.861 18.232 108.117 18.328C108.373 18.424 108.757 18.488 109.269 18.52V19C108.821 18.968 108.253 18.952 107.565 18.952C106.893 18.936 106.205 18.928 105.501 18.928C104.733 18.928 104.013 18.936 103.341 18.952C102.669 18.952 102.125 18.968 101.709 19V18.52C102.253 18.488 102.661 18.424 102.933 18.328C103.221 18.232 103.413 18.04 103.509 17.752C103.605 17.464 103.653 17.032 103.653 16.456V3.472H103.821L97.8685 19.024H97.4845L91.0045 3.568V15.064C91.0045 15.944 91.0525 16.624 91.1485 17.104C91.2445 17.568 91.4525 17.904 91.7725 18.112C92.1085 18.304 92.6285 18.44 93.3325 18.52V19C93.0285 18.968 92.6285 18.952 92.1325 18.952C91.6365 18.936 91.1725 18.928 90.7405 18.928C90.3725 18.928 89.9965 18.936 89.6125 18.952C89.2285 18.952 88.9085 18.968 88.6525 19V18.52C89.1645 18.44 89.5485 18.304 89.8045 18.112C90.0605 17.92 90.2285 17.608 90.3085 17.176C90.4045 16.728 90.4525 16.12 90.4525 15.352V4.552C90.4525 3.96 90.4045 3.528 90.3085 3.256C90.2285 2.968 90.0525 2.776 89.7805 2.68C89.5245 2.568 89.1485 2.504 88.6525 2.488V2.008C88.9085 2.024 89.2285 2.04 89.6125 2.056C89.9965 2.072 90.3725 2.08 90.7405 2.08C91.4285 2.08 92.1005 2.072 92.7565 2.056C93.4285 2.04 94.0205 2.024 94.5325 2.008L99.5725 14.176L98.9725 14.728L103.797 2.08C104.069 2.08 104.349 2.08 104.637 2.08C104.925 2.08 105.213 2.08 105.501 2.08C106.205 2.08 106.893 2.072 107.565 2.056C108.253 2.04 108.821 2.024 109.269 2.008ZM116.377 6.256C117.785 6.256 118.889 6.672 119.689 7.504C120.489 8.336 120.889 9.696 120.889 11.584H112.993L112.945 11.128H117.865C117.881 10.344 117.833 9.624 117.721 8.968C117.609 8.296 117.433 7.76 117.193 7.36C116.953 6.96 116.633 6.76 116.233 6.76C115.673 6.76 115.193 7.112 114.793 7.816C114.409 8.52 114.177 9.688 114.097 11.32L114.169 11.464C114.153 11.656 114.137 11.856 114.121 12.064C114.121 12.272 114.121 12.488 114.121 12.712C114.121 13.816 114.273 14.712 114.577 15.4C114.897 16.088 115.297 16.592 115.777 16.912C116.257 17.216 116.745 17.368 117.241 17.368C117.577 17.368 117.921 17.32 118.273 17.224C118.641 17.112 119.009 16.92 119.377 16.648C119.745 16.36 120.089 15.96 120.409 15.448L120.841 15.592C120.649 16.2 120.345 16.792 119.929 17.368C119.513 17.944 118.985 18.416 118.345 18.784C117.705 19.152 116.937 19.336 116.041 19.336C114.953 19.336 113.993 19.104 113.161 18.64C112.329 18.176 111.673 17.472 111.193 16.528C110.729 15.584 110.497 14.384 110.497 12.928C110.497 11.44 110.745 10.2 111.241 9.208C111.753 8.216 112.449 7.48 113.329 7C114.225 6.504 115.241 6.256 116.377 6.256ZM134.087 0.207999V16.36C134.087 17.08 134.199 17.616 134.423 17.968C134.647 18.304 135.047 18.472 135.623 18.472V18.976C135.127 18.928 134.631 18.904 134.135 18.904C133.463 18.904 132.831 18.928 132.239 18.976C131.663 19.024 131.127 19.112 130.631 19.24V3.088C130.631 2.368 130.519 1.84 130.295 1.504C130.087 1.152 129.687 0.975999 129.095 0.975999V0.472C129.607 0.519999 130.103 0.543999 130.583 0.543999C131.239 0.543999 131.863 0.519999 132.455 0.472C133.047 0.408 133.591 0.319999 134.087 0.207999ZM127.967 6.256C128.671 6.256 129.287 6.376 129.815 6.616C130.359 6.84 130.783 7.224 131.087 7.768L130.799 8.032C130.591 7.648 130.311 7.376 129.959 7.216C129.623 7.04 129.263 6.952 128.879 6.952C128.063 6.952 127.415 7.432 126.935 8.392C126.455 9.336 126.223 10.8 126.239 12.784C126.239 14.144 126.327 15.232 126.503 16.048C126.695 16.848 126.959 17.424 127.295 17.776C127.647 18.128 128.047 18.304 128.495 18.304C129.039 18.304 129.527 18.088 129.959 17.656C130.391 17.224 130.623 16.64 130.655 15.904L130.775 16.744C130.535 17.592 130.143 18.24 129.599 18.688C129.071 19.12 128.375 19.336 127.511 19.336C126.567 19.336 125.719 19.104 124.967 18.64C124.231 18.176 123.655 17.464 123.239 16.504C122.823 15.528 122.615 14.272 122.615 12.736C122.615 11.28 122.847 10.08 123.311 9.136C123.775 8.176 124.407 7.456 125.207 6.976C126.023 6.496 126.943 6.256 127.967 6.256ZM139.743 0.399999C140.415 0.399999 140.943 0.567999 141.327 0.904C141.727 1.224 141.927 1.672 141.927 2.248C141.927 2.824 141.727 3.28 141.327 3.616C140.943 3.936 140.415 4.096 139.743 4.096C139.071 4.096 138.535 3.936 138.135 3.616C137.751 3.28 137.559 2.824 137.559 2.248C137.559 1.672 137.751 1.224 138.135 0.904C138.535 0.567999 139.071 0.399999 139.743 0.399999ZM141.615 6.328V16.768C141.615 17.44 141.727 17.896 141.951 18.136C142.191 18.376 142.591 18.496 143.151 18.496V19C142.863 18.984 142.415 18.968 141.807 18.952C141.199 18.92 140.583 18.904 139.959 18.904C139.335 18.904 138.703 18.92 138.063 18.952C137.423 18.968 136.943 18.984 136.623 19V18.496C137.183 18.496 137.575 18.376 137.799 18.136C138.039 17.896 138.159 17.44 138.159 16.768V9.208C138.159 8.488 138.047 7.96 137.823 7.624C137.615 7.272 137.215 7.096 136.623 7.096V6.592C137.135 6.64 137.631 6.664 138.111 6.664C138.783 6.664 139.407 6.64 139.983 6.592C140.575 6.528 141.119 6.44 141.615 6.328ZM156.145 6.328V16.384C156.145 17.104 156.257 17.64 156.481 17.992C156.705 18.328 157.105 18.496 157.681 18.496V19C157.185 18.952 156.689 18.928 156.193 18.928C155.521 18.928 154.897 18.952 154.321 19C153.745 19.048 153.201 19.136 152.689 19.264V17.104C152.305 17.904 151.769 18.48 151.081 18.832C150.409 19.168 149.657 19.336 148.825 19.336C148.153 19.336 147.609 19.248 147.193 19.072C146.777 18.896 146.449 18.672 146.209 18.4C145.937 18.096 145.745 17.696 145.633 17.2C145.521 16.704 145.465 16.064 145.465 15.28V9.208C145.465 8.488 145.353 7.96 145.129 7.624C144.921 7.272 144.521 7.096 143.929 7.096V6.592C144.441 6.64 144.937 6.664 145.417 6.664C146.089 6.664 146.713 6.64 147.289 6.592C147.881 6.528 148.425 6.44 148.921 6.328V16.264C148.921 16.664 148.953 17.016 149.017 17.32C149.097 17.624 149.241 17.864 149.449 18.04C149.657 18.2 149.961 18.28 150.361 18.28C150.793 18.28 151.177 18.16 151.513 17.92C151.865 17.68 152.145 17.352 152.353 16.936C152.577 16.504 152.689 16.024 152.689 15.496V9.208C152.689 8.488 152.577 7.96 152.353 7.624C152.145 7.272 151.745 7.096 151.153 7.096V6.592C151.665 6.64 152.161 6.664 152.641 6.664C153.313 6.664 153.937 6.64 154.513 6.592C155.105 6.528 155.649 6.44 156.145 6.328ZM167.46 6.256C168.132 6.256 168.676 6.344 169.092 6.52C169.508 6.68 169.844 6.904 170.1 7.192C170.356 7.496 170.54 7.896 170.652 8.392C170.764 8.872 170.82 9.512 170.82 10.312V16.768C170.82 17.44 170.924 17.896 171.132 18.136C171.34 18.376 171.7 18.496 172.212 18.496V19C171.924 18.984 171.484 18.968 170.892 18.952C170.316 18.92 169.748 18.904 169.188 18.904C168.612 18.904 168.044 18.92 167.484 18.952C166.924 18.968 166.5 18.984 166.212 19V18.496C166.644 18.496 166.94 18.376 167.1 18.136C167.276 17.896 167.364 17.44 167.364 16.768V9.304C167.364 8.904 167.332 8.56 167.268 8.272C167.204 7.968 167.076 7.736 166.884 7.576C166.708 7.4 166.436 7.312 166.068 7.312C165.652 7.312 165.268 7.432 164.916 7.672C164.564 7.912 164.276 8.248 164.052 8.68C163.844 9.096 163.74 9.568 163.74 10.096V16.768C163.74 17.44 163.828 17.896 164.004 18.136C164.18 18.376 164.476 18.496 164.892 18.496V19C164.636 18.984 164.236 18.968 163.692 18.952C163.164 18.92 162.62 18.904 162.06 18.904C161.452 18.904 160.828 18.92 160.188 18.952C159.548 18.968 159.068 18.984 158.748 19V18.496C159.308 18.496 159.7 18.376 159.924 18.136C160.164 17.896 160.284 17.44 160.284 16.768V9.208C160.284 8.488 160.172 7.96 159.948 7.624C159.74 7.272 159.34 7.096 158.748 7.096V6.592C159.26 6.64 159.756 6.664 160.236 6.664C160.908 6.664 161.532 6.64 162.108 6.592C162.7 6.528 163.244 6.44 163.74 6.328V8.488C164.124 7.688 164.644 7.12 165.3 6.784C165.956 6.432 166.676 6.256 167.46 6.256ZM174.684 6.256C175.356 6.256 175.9 6.344 176.316 6.52C176.732 6.68 177.068 6.904 177.324 7.192C177.58 7.496 177.764 7.896 177.876 8.392C177.988 8.872 178.044 9.512 178.044 10.312V16.768C178.044 17.44 178.156 17.896 178.38 18.136C178.62 18.376 179.02 18.496 179.58 18.496V19C179.276 18.984 178.82 18.968 178.212 18.952C177.604 18.92 177.004 18.904 176.412 18.904C175.836 18.904 175.268 18.92 174.708 18.952C174.148 18.968 173.724 18.984 173.436 19V18.496C173.868 18.496 174.164 18.376 174.324 18.136C174.5 17.896 174.588 17.44 174.588 16.768V9.304C174.588 8.904 174.548 8.56 174.468 8.272C174.404 7.968 174.268 7.736 174.06 7.576C173.868 7.4 173.564 7.312 173.148 7.312C172.732 7.312 172.348 7.44 171.996 7.696C171.644 7.952 171.356 8.296 171.132 8.728C170.924 9.16 170.812 9.64 170.796 10.168L170.676 8.704C171.108 7.744 171.676 7.096 172.38 6.76C173.1 6.424 173.868 6.256 174.684 6.256Z" fill="black"/>
</svg>
