<svg width="12" height="12" viewBox="0 0 12 12" fill="none" xmlns="http://www.w3.org/2000/svg">
<path d="M2.99999 1H4.04599L2.99699 4H1.19099L2.55299 1.276C2.59456 1.19305 2.65838 1.12331 2.73733 1.07456C2.81627 1.02582 2.90722 1 2.99999 1ZM1.22699 5L4.24099 9.687L2.96999 5H1.22699ZM4.00599 5L5.53599 10.645C5.56311 10.7474 5.62332 10.8379 5.70724 10.9025C5.79117 10.9671 5.89409 11.0021 5.99999 11.0021C6.1059 11.0021 6.20882 10.9671 6.29275 10.9025C6.37667 10.8379 6.43688 10.7474 6.46399 10.645L7.99799 5H4.00599ZM9.03399 5L7.75999 9.685L10.773 5H9.03399ZM10.809 4H9.00599L7.95599 1H8.99999C9.09294 0.999818 9.1841 1.02555 9.26324 1.0743C9.34237 1.12305 9.40635 1.1929 9.44799 1.276L10.809 4ZM7.94699 4H4.05699L5.10499 1H6.89499L7.94699 4Z" fill="#F0DA13"/>
</svg>
