<svg width="16" height="16" viewBox="0 0 16 16" fill="none" xmlns="http://www.w3.org/2000/svg">
<path d="M10.444 6.276L9.375 2H12.5C12.5928 2 12.6837 2.02582 12.7627 2.07456C12.8416 2.12331 12.9054 2.19305 12.947 2.276L14.947 6.276H10.444Z" fill="url(#paint0_linear_7_50)"/>
<path d="M6.625 2H3.5C3.40722 2 3.31628 2.02582 3.23733 2.07456C3.15839 2.12331 3.09457 2.19305 3.053 2.276L1.053 6.276H5.556L6.625 2Z" fill="url(#paint1_linear_7_50)"/>
<path d="M6.015 2.379C6.04199 2.27078 6.10439 2.1747 6.19227 2.10602C6.28015 2.03735 6.38847 2.00003 6.5 2H9.5C9.61153 2.00003 9.71985 2.03735 9.80773 2.10602C9.89561 2.1747 9.95801 2.27078 9.985 2.379L10.985 6.379C10.995 6.419 11 6.45933 11 6.5H5C5.00005 6.45921 5.00508 6.41857 5.015 6.379L6.015 2.379Z" fill="url(#paint2_linear_7_50)"/>
<path d="M7.623 14.828L10.432 6H14.809L14.947 6.276C14.9903 6.36212 15.0077 6.45891 14.9972 6.55471C14.9868 6.65051 14.9488 6.74125 14.888 6.816L8.388 14.816C8.34195 14.8725 8.2841 14.9182 8.21851 14.95C8.15292 14.9818 8.08117 14.9989 8.00829 15C7.93541 15.0012 7.86317 14.9864 7.79661 14.9566C7.73006 14.9269 7.6708 14.883 7.623 14.828Z" fill="url(#paint3_linear_7_50)"/>
<path d="M5.568 6H1.191L1.053 6.276C1.00975 6.36212 0.992308 6.45891 1.00278 6.55471C1.01324 6.65051 1.05117 6.74125 1.112 6.816L7.612 14.816C7.65806 14.8725 7.7159 14.9182 7.78149 14.95C7.84709 14.9818 7.91883 14.9989 7.99171 15C8.06459 15.0012 8.13684 14.9864 8.20339 14.9566C8.26995 14.9269 8.3292 14.883 8.377 14.828L5.568 6Z" fill="url(#paint4_linear_7_50)"/>
<path d="M5.11 6L5.015 6.379C4.99285 6.46803 4.99562 6.56144 5.023 6.649L7.523 14.649C7.55491 14.7505 7.61837 14.8392 7.70416 14.9022C7.78995 14.9651 7.89359 14.9991 8 14.9991C8.10642 14.9991 8.21006 14.9651 8.29585 14.9022C8.38164 14.8392 8.4451 14.7505 8.477 14.649L10.977 6.649C11.0044 6.56144 11.0072 6.46803 10.985 6.379L10.89 6H5.11Z" fill="url(#paint5_linear_7_50)"/>
<path d="M3.5 2C3.40722 2 3.31628 2.02582 3.23733 2.07456C3.15839 2.12331 3.09457 2.19305 3.053 2.276L1.053 6.276C1.00975 6.36212 0.992308 6.45891 1.00278 6.55471C1.01324 6.65051 1.05117 6.74125 1.112 6.816L7.612 14.816C7.65889 14.8737 7.71804 14.9202 7.78516 14.9521C7.85228 14.9841 7.92567 15.0006 8 15.0006C8.07433 15.0006 8.14773 14.9841 8.21485 14.9521C8.28197 14.9202 8.34112 14.8737 8.388 14.816L14.888 6.816C14.949 6.74135 14.9871 6.65067 14.9978 6.55486C15.0084 6.45906 14.9911 6.36222 14.948 6.276L12.948 2.276C12.9064 2.1929 12.8424 2.12305 12.7632 2.0743C12.6841 2.02555 12.593 1.99982 12.5 2H3.5Z" fill="url(#paint6_linear_7_50)" fill-opacity="0.7"/>
<defs>
<linearGradient id="paint0_linear_7_50" x1="11.365" y1="2" x2="14.004" y2="8.632" gradientUnits="userSpaceOnUse">
<stop stop-color="#0FAFFF"/>
<stop offset="1" stop-color="#102784"/>
</linearGradient>
<linearGradient id="paint1_linear_7_50" x1="5.829" y1="0.218" x2="3.513" y2="5.76" gradientUnits="userSpaceOnUse">
<stop stop-color="#9FF0F9"/>
<stop offset="1" stop-color="#29C3FF"/>
</linearGradient>
<linearGradient id="paint2_linear_7_50" x1="8" y1="2" x2="8" y2="7.625" gradientUnits="userSpaceOnUse">
<stop stop-color="#3BD5FF"/>
<stop offset="1" stop-color="#367AF2"/>
</linearGradient>
<linearGradient id="paint3_linear_7_50" x1="16.736" y1="1.5" x2="8.517" y2="13.828" gradientUnits="userSpaceOnUse">
<stop stop-color="#1B44B1"/>
<stop offset="1" stop-color="#2052CB"/>
</linearGradient>
<linearGradient id="paint4_linear_7_50" x1="2.302" y1="4.2" x2="7.818" y2="14.84" gradientUnits="userSpaceOnUse">
<stop stop-color="#0094F0"/>
<stop offset="1" stop-color="#6CE0FF"/>
</linearGradient>
<linearGradient id="paint5_linear_7_50" x1="7.996" y1="2.85" x2="7.996" y2="15" gradientUnits="userSpaceOnUse">
<stop stop-color="#2052CB"/>
<stop offset="1" stop-color="#0FAFFF"/>
</linearGradient>
<linearGradient id="paint6_linear_7_50" x1="-0.421997" y1="-10.242" x2="10.764" y2="16.053" gradientUnits="userSpaceOnUse">
<stop offset="0.533" stop-color="#FF6CE8" stop-opacity="0"/>
<stop offset="1" stop-color="#FF6CE8"/>
</linearGradient>
</defs>
</svg>
