<svg width="24" height="24" viewBox="0 0 24 24" fill="none" xmlns="http://www.w3.org/2000/svg">
<path d="M19.09 14.441V18.881C19.0897 19.5092 18.8401 20.1116 18.3958 20.5558C17.9516 21.0001 17.3492 21.2497 16.721 21.25H5.12C4.80776 21.2499 4.49861 21.188 4.21034 21.0681C3.92206 20.9481 3.66033 20.7723 3.44019 20.5509C3.22005 20.3295 3.04584 20.0667 2.92757 19.7777C2.8093 19.4887 2.74929 19.1792 2.751 18.867V7.279C2.74915 6.96725 2.80918 6.65823 2.92762 6.36985C3.04607 6.08147 3.22057 5.81946 3.44102 5.59902C3.66146 5.37857 3.92347 5.20407 4.21185 5.08562C4.50023 4.96718 4.80925 4.90714 5.121 4.909H9.56" stroke="#686868" stroke-width="1.5" stroke-linecap="round" stroke-linejoin="round"/>
<path d="M19.09 8.995L15.005 4.909M6.835 15.803V13.638C6.837 13.281 6.979 12.938 7.23 12.685L16.762 3.153C16.8885 3.0251 17.0391 2.92357 17.2051 2.85427C17.371 2.78498 17.5491 2.7493 17.729 2.7493C17.9089 2.7493 18.087 2.78498 18.2529 2.85427C18.4189 2.92357 18.5695 3.0251 18.696 3.153L20.847 5.304C20.9749 5.43048 21.0764 5.58107 21.1457 5.74706C21.215 5.91304 21.2507 6.09113 21.2507 6.271C21.2507 6.45087 21.215 6.62895 21.1457 6.79494C21.0764 6.96093 20.9749 7.11152 20.847 7.238L11.315 16.77C11.0615 17.0217 10.7192 17.1636 10.362 17.165H8.197C8.01807 17.1653 7.84084 17.1302 7.67547 17.0619C7.51011 16.9935 7.35986 16.8932 7.23333 16.7667C7.10681 16.6401 7.00649 16.4899 6.93814 16.3245C6.86979 16.1592 6.83474 15.9819 6.835 15.803Z" stroke="#686868" stroke-width="1.5" stroke-linecap="round" stroke-linejoin="round"/>
</svg>
